# Blender v2.79 (sub 0) OBJ File: ''
# www.blender.org
mtllib 1x3.mtl
o Cube.000_Cube.003
v 2.102800 -0.960000 -0.502800
v 2.102800 -0.960000 0.502799
v -2.102799 -0.960000 0.502799
v -2.102799 -0.960000 -0.502800
v 2.380001 0.960000 -0.780000
v -2.380000 0.960000 -0.780000
v -2.380001 0.960000 0.779999
v 2.379998 0.960000 0.780000
v 1.602450 0.633851 -0.480000
v 1.602450 1.313851 -0.480000
v 1.696094 1.313851 -0.470777
v 1.696094 0.633851 -0.470777
v 1.786139 1.313851 -0.443462
v 1.786139 0.633851 -0.443462
v 1.869124 1.313851 -0.399106
v 1.869124 0.633851 -0.399106
v 1.941862 1.313851 -0.339411
v 1.941862 0.633851 -0.339411
v 2.001556 1.313851 -0.266674
v 2.001556 0.633851 -0.266674
v 2.045913 1.313851 -0.183688
v 2.045913 0.633851 -0.183688
v 2.073227 1.313851 -0.093644
v 2.073227 0.633851 -0.093643
v 2.082450 1.313851 0.000000
v 2.082450 0.633851 0.000000
v 2.073227 1.313851 0.093643
v 2.073227 0.633851 0.093643
v 2.045913 1.313851 0.183688
v 2.045913 0.633851 0.183688
v 2.001556 1.313851 0.266673
v 2.001556 0.633851 0.266674
v 1.941862 1.313851 0.339411
v 1.941862 0.633851 0.339411
v 1.869124 1.313851 0.399105
v 1.869124 0.633851 0.399105
v 1.786138 1.313851 0.443462
v 1.786138 0.633851 0.443462
v 1.696094 1.313851 0.470777
v 1.696094 0.633851 0.470777
v 1.602450 1.313851 0.480000
v 1.602450 0.633851 0.480000
v 1.508807 1.313851 0.470777
v 1.508807 0.633851 0.470777
v 1.418762 1.313851 0.443462
v 1.418762 0.633851 0.443462
v 1.335777 1.313851 0.399105
v 1.335777 0.633851 0.399105
v 1.263039 1.313851 0.339411
v 1.263039 0.633851 0.339411
v 1.203345 1.313851 0.266673
v 1.203345 0.633851 0.266673
v 1.158988 1.313851 0.183687
v 1.158988 0.633851 0.183688
v 1.131673 1.313851 0.093643
v 1.131673 0.633851 0.093643
v 1.122450 1.313851 -0.000001
v 1.122450 0.633851 -0.000001
v 1.131674 1.313851 -0.093644
v 1.131674 0.633851 -0.093644
v 1.158988 1.313851 -0.183689
v 1.158988 0.633851 -0.183689
v 1.203345 1.313851 -0.266674
v 1.203345 0.633851 -0.266674
v 1.263040 1.313851 -0.339412
v 1.263040 0.633851 -0.339412
v 1.335777 1.313851 -0.399106
v 1.335777 0.633851 -0.399106
v 1.418763 1.313851 -0.443463
v 1.418763 0.633851 -0.443463
v 1.508808 1.313851 -0.470777
v 1.508808 0.633851 -0.470777
v -1.603534 0.633851 -0.480000
v -1.603534 1.313851 -0.480000
v -1.509890 1.313851 -0.470777
v -1.509890 0.633851 -0.470777
v -1.419845 1.313851 -0.443462
v -1.419845 0.633851 -0.443462
v -1.336860 1.313851 -0.399106
v -1.336860 0.633851 -0.399106
v -1.264122 1.313851 -0.339411
v -1.264122 0.633851 -0.339411
v -1.204428 1.313851 -0.266674
v -1.204428 0.633851 -0.266674
v -1.160071 1.313851 -0.183688
v -1.160071 0.633851 -0.183688
v -1.132757 1.313851 -0.093644
v -1.132757 0.633851 -0.093643
v -1.123534 1.313851 0.000000
v -1.123534 0.633851 0.000000
v -1.132757 1.313851 0.093643
v -1.132757 0.633851 0.093643
v -1.160071 1.313851 0.183688
v -1.160071 0.633851 0.183688
v -1.204428 1.313851 0.266673
v -1.204428 0.633851 0.266674
v -1.264122 1.313851 0.339411
v -1.264122 0.633851 0.339411
v -1.336860 1.313851 0.399105
v -1.336860 0.633851 0.399105
v -1.419845 1.313851 0.443462
v -1.419845 0.633851 0.443462
v -1.509890 1.313851 0.470777
v -1.509890 0.633851 0.470777
v -1.603534 1.313851 0.480000
v -1.603534 0.633851 0.480000
v -1.697177 1.313851 0.470777
v -1.697177 0.633851 0.470777
v -1.787222 1.313851 0.443462
v -1.787222 0.633851 0.443462
v -1.870207 1.313851 0.399105
v -1.870207 0.633851 0.399105
v -1.942945 1.313851 0.339411
v -1.942945 0.633851 0.339411
v -2.002639 1.313851 0.266673
v -2.002639 0.633851 0.266673
v -2.046996 1.313851 0.183687
v -2.046996 0.633851 0.183688
v -2.074311 1.313851 0.093643
v -2.074311 0.633851 0.093643
v -2.083534 1.313851 -0.000001
v -2.083534 0.633851 -0.000001
v -2.074310 1.313851 -0.093644
v -2.074310 0.633851 -0.093644
v -2.046995 1.313851 -0.183689
v -2.046995 0.633851 -0.183689
v -2.002639 1.313851 -0.266674
v -2.002639 0.633851 -0.266674
v -1.942944 1.313851 -0.339412
v -1.942944 0.633851 -0.339412
v -1.870207 1.313851 -0.399106
v -1.870207 0.633851 -0.399106
v -1.787221 1.313851 -0.443463
v -1.787221 0.633851 -0.443463
v -1.697176 1.313851 -0.470777
v -1.697176 0.633851 -0.470777
v 0.000000 0.633851 -0.480000
v 0.000000 1.313851 -0.480000
v 0.093643 1.313851 -0.470777
v 0.093643 0.633851 -0.470777
v 0.183688 1.313851 -0.443462
v 0.183688 0.633851 -0.443462
v 0.266674 1.313851 -0.399106
v 0.266674 0.633851 -0.399106
v 0.339411 1.313851 -0.339411
v 0.339411 0.633851 -0.339411
v 0.399105 1.313851 -0.266674
v 0.399105 0.633851 -0.266674
v 0.443462 1.313851 -0.183688
v 0.443462 0.633851 -0.183688
v 0.470777 1.313851 -0.093644
v 0.470777 0.633851 -0.093643
v 0.480000 1.313851 0.000000
v 0.480000 0.633851 0.000000
v 0.470777 1.313851 0.093643
v 0.470777 0.633851 0.093643
v 0.443462 1.313851 0.183688
v 0.443462 0.633851 0.183688
v 0.399105 1.313851 0.266673
v 0.399105 0.633851 0.266674
v 0.339411 1.313851 0.339411
v 0.339411 0.633851 0.339411
v 0.266674 1.313851 0.399105
v 0.266674 0.633851 0.399105
v 0.183688 1.313851 0.443462
v 0.183688 0.633851 0.443462
v 0.093643 1.313851 0.470777
v 0.093643 0.633851 0.470777
v 0.000000 1.313851 0.480000
v 0.000000 0.633851 0.480000
v -0.093644 1.313851 0.470777
v -0.093644 0.633851 0.470777
v -0.183688 1.313851 0.443462
v -0.183688 0.633851 0.443462
v -0.266674 1.313851 0.399105
v -0.266674 0.633851 0.399105
v -0.339411 1.313851 0.339411
v -0.339411 0.633851 0.339411
v -0.399106 1.313851 0.266673
v -0.399106 0.633851 0.266673
v -0.443462 1.313851 0.183687
v -0.443462 0.633851 0.183688
v -0.470777 1.313851 0.093643
v -0.470777 0.633851 0.093643
v -0.480000 1.313851 -0.000001
v -0.480000 0.633851 -0.000001
v -0.470777 1.313851 -0.093644
v -0.470777 0.633851 -0.093644
v -0.443462 1.313851 -0.183689
v -0.443462 0.633851 -0.183689
v -0.399105 1.313851 -0.266674
v -0.399105 0.633851 -0.266674
v -0.339411 1.313851 -0.339412
v -0.339411 0.633851 -0.339412
v -0.266673 1.313851 -0.399106
v -0.266673 0.633851 -0.399106
v -0.183687 1.313851 -0.443463
v -0.183687 0.633851 -0.443463
v -0.093643 1.313851 -0.470777
v -0.093643 0.633851 -0.470777
v 2.380000 -0.960000 -0.780000
v 2.380000 -0.960000 0.780000
v -2.380000 -0.960000 0.780000
v -2.379999 -0.960000 -0.780000
v 2.102800 0.129295 -0.502800
v 2.102800 0.129294 0.502800
v -2.102799 0.129294 0.502800
v -2.102799 0.129295 -0.502800
vn 0.7071 -0.0000 0.7071
vn -0.7071 -0.0000 0.7071
vn -0.0000 1.0000 0.0000
vn 1.0000 0.0000 0.0000
vn -0.0000 0.0000 1.0000
vn -1.0000 -0.0000 -0.0000
vn 0.0000 0.0000 -1.0000
vn 0.0980 0.0000 -0.9952
vn 0.2903 0.0000 -0.9569
vn 0.4714 0.0000 -0.8819
vn 0.6344 0.0000 -0.7730
vn 0.7730 0.0000 -0.6344
vn 0.8819 0.0000 -0.4714
vn 0.9569 -0.0000 -0.2903
vn 0.9952 -0.0000 -0.0980
vn 0.9952 0.0000 0.0980
vn 0.9569 -0.0000 0.2903
vn 0.8819 0.0000 0.4714
vn 0.7730 0.0000 0.6344
vn 0.6344 -0.0000 0.7730
vn 0.4714 -0.0000 0.8819
vn 0.2903 -0.0000 0.9569
vn 0.0980 -0.0000 0.9952
vn -0.0980 -0.0000 0.9952
vn -0.2903 -0.0000 0.9569
vn -0.4714 -0.0000 0.8819
vn -0.6344 -0.0000 0.7730
vn -0.7730 -0.0000 0.6344
vn -0.8819 0.0000 0.4714
vn -0.9569 0.0000 0.2903
vn -0.9952 -0.0000 0.0980
vn -0.9952 -0.0000 -0.0980
vn -0.9569 0.0000 -0.2903
vn -0.8819 0.0000 -0.4714
vn -0.7730 0.0000 -0.6344
vn -0.6344 0.0000 -0.7730
vn -0.4714 0.0000 -0.8819
vn -0.2903 0.0000 -0.9569
vn -0.0980 0.0000 -0.9952
vn 0.0000 -1.0000 -0.0000
vn -0.7071 0.0000 -0.7071
vn 0.7071 0.0000 -0.7071
usemtl Material.006
s 1
f 4//1 1//2 205//2 208//1
f 5//3 6//3 7//3 8//3
f 201//4 5//4 8//4 202//4
f 202//5 8//5 7//5 203//5
f 203//6 7//6 6//6 204//6
f 5//7 201//7 204//7 6//7
f 9//8 10//8 11//8 12//8
f 12//9 11//9 13//9 14//9
f 14//10 13//10 15//10 16//10
f 16//11 15//11 17//11 18//11
f 18//12 17//12 19//12 20//12
f 20//13 19//13 21//13 22//13
f 22//14 21//14 23//14 24//14
f 24//15 23//15 25//15 26//15
f 26//16 25//16 27//16 28//16
f 28//17 27//17 29//17 30//17
f 30//18 29//18 31//18 32//18
f 32//19 31//19 33//19 34//19
f 34//20 33//20 35//20 36//20
f 36//21 35//21 37//21 38//21
f 38//22 37//22 39//22 40//22
f 40//23 39//23 41//23 42//23
f 42//24 41//24 43//24 44//24
f 44//25 43//25 45//25 46//25
f 46//26 45//26 47//26 48//26
f 48//27 47//27 49//27 50//27
f 50//28 49//28 51//28 52//28
f 52//29 51//29 53//29 54//29
f 54//30 53//30 55//30 56//30
f 56//31 55//31 57//31 58//31
f 58//32 57//32 59//32 60//32
f 60//33 59//33 61//33 62//33
f 62//34 61//34 63//34 64//34
f 64//35 63//35 65//35 66//35
f 66//36 65//36 67//36 68//36
f 68//37 67//37 69//37 70//37
f 11//3 10//3 71//3 69//3 67//3 65//3 63//3 61//3 59//3 57//3 55//3 53//3 51//3 49//3 47//3 45//3 43//3 41//3 39//3 37//3 35//3 33//3 31//3 29//3 27//3 25//3 23//3 21//3 19//3 17//3 15//3 13//3
f 70//38 69//38 71//38 72//38
f 72//39 71//39 10//39 9//39
f 9//40 12//40 14//40 16//40 18//40 20//40 22//40 24//40 26//40 28//40 30//40 32//40 34//40 36//40 38//40 40//40 42//40 44//40 46//40 48//40 50//40 52//40 54//40 56//40 58//40 60//40 62//40 64//40 66//40 68//40 70//40 72//40
f 73//8 74//8 75//8 76//8
f 76//9 75//9 77//9 78//9
f 78//10 77//10 79//10 80//10
f 80//11 79//11 81//11 82//11
f 82//12 81//12 83//12 84//12
f 84//13 83//13 85//13 86//13
f 86//14 85//14 87//14 88//14
f 88//15 87//15 89//15 90//15
f 90//16 89//16 91//16 92//16
f 92//17 91//17 93//17 94//17
f 94//18 93//18 95//18 96//18
f 96//19 95//19 97//19 98//19
f 98//20 97//20 99//20 100//20
f 100//21 99//21 101//21 102//21
f 102//22 101//22 103//22 104//22
f 104//23 103//23 105//23 106//23
f 106//24 105//24 107//24 108//24
f 108//25 107//25 109//25 110//25
f 110//26 109//26 111//26 112//26
f 112//27 111//27 113//27 114//27
f 114//28 113//28 115//28 116//28
f 116//29 115//29 117//29 118//29
f 118//30 117//30 119//30 120//30
f 120//31 119//31 121//31 122//31
f 122//32 121//32 123//32 124//32
f 124//33 123//33 125//33 126//33
f 126//34 125//34 127//34 128//34
f 128//35 127//35 129//35 130//35
f 130//36 129//36 131//36 132//36
f 132//37 131//37 133//37 134//37
f 75//3 74//3 135//3 133//3 131//3 129//3 127//3 125//3 123//3 121//3 119//3 117//3 115//3 113//3 111//3 109//3 107//3 105//3 103//3 101//3 99//3 97//3 95//3 93//3 91//3 89//3 87//3 85//3 83//3 81//3 79//3 77//3
f 134//38 133//38 135//38 136//38
f 136//39 135//39 74//39 73//39
f 73//40 76//40 78//40 80//40 82//40 84//40 86//40 88//40 90//40 92//40 94//40 96//40 98//40 100//40 102//40 104//40 106//40 108//40 110//40 112//40 114//40 116//40 118//40 120//40 122//40 124//40 126//40 128//40 130//40 132//40 134//40 136//40
f 137//8 138//8 139//8 140//8
f 140//9 139//9 141//9 142//9
f 142//10 141//10 143//10 144//10
f 144//11 143//11 145//11 146//11
f 146//12 145//12 147//12 148//12
f 148//13 147//13 149//13 150//13
f 150//14 149//14 151//14 152//14
f 152//15 151//15 153//15 154//15
f 154//16 153//16 155//16 156//16
f 156//17 155//17 157//17 158//17
f 158//18 157//18 159//18 160//18
f 160//19 159//19 161//19 162//19
f 162//20 161//20 163//20 164//20
f 164//21 163//21 165//21 166//21
f 166//22 165//22 167//22 168//22
f 168//23 167//23 169//23 170//23
f 170//24 169//24 171//24 172//24
f 172//25 171//25 173//25 174//25
f 174//26 173//26 175//26 176//26
f 176//27 175//27 177//27 178//27
f 178//28 177//28 179//28 180//28
f 180//29 179//29 181//29 182//29
f 182//30 181//30 183//30 184//30
f 184//31 183//31 185//31 186//31
f 186//32 185//32 187//32 188//32
f 188//33 187//33 189//33 190//33
f 190//34 189//34 191//34 192//34
f 192//35 191//35 193//35 194//35
f 194//36 193//36 195//36 196//36
f 196//37 195//37 197//37 198//37
f 139//3 138//3 199//3 197//3 195//3 193//3 191//3 189//3 187//3 185//3 183//3 181//3 179//3 177//3 175//3 173//3 171//3 169//3 167//3 165//3 163//3 161//3 159//3 157//3 155//3 153//3 151//3 149//3 147//3 145//3 143//3 141//3
f 198//38 197//38 199//38 200//38
f 200//39 199//39 138//39 137//39
f 137//40 140//40 142//40 144//40 146//40 148//40 150//40 152//40 154//40 156//40 158//40 160//40 162//40 164//40 166//40 168//40 170//40 172//40 174//40 176//40 178//40 180//40 182//40 184//40 186//40 188//40 190//40 192//40 194//40 196//40 198//40 200//40
f 2//40 1//40 201//40 202//40
f 4//40 3//40 203//40 204//40
f 1//40 4//40 204//40 201//40
f 3//40 2//40 202//40 203//40
f 205//40 206//40 207//40 208//40
f 1//2 2//41 206//41 205//2
f 2//41 3//42 207//42 206//41
f 3//42 4//1 208//1 207//42
