# Blender v2.79 (sub 0) OBJ File: ''
# www.blender.org
mtllib 1x4.mtl
o Cylinder.013_Cylinder.028
v 2.386514 0.633851 -0.480000
v 2.386514 1.313851 -0.480000
v 2.480158 1.313851 -0.470777
v 2.480158 0.633851 -0.470777
v 2.570202 1.313851 -0.443462
v 2.570202 0.633851 -0.443462
v 2.653188 1.313851 -0.399105
v 2.653188 0.633851 -0.399105
v 2.725925 1.313851 -0.339411
v 2.725925 0.633851 -0.339411
v 2.785620 1.313851 -0.266674
v 2.785620 0.633851 -0.266674
v 2.829976 1.313851 -0.183688
v 2.829976 0.633851 -0.183688
v 2.857291 1.313851 -0.093643
v 2.857291 0.633851 -0.093643
v 2.866514 1.313851 0.000000
v 2.866514 0.633851 0.000000
v 2.857291 1.313851 0.093643
v 2.857291 0.633851 0.093643
v 2.829976 1.313851 0.183688
v 2.829976 0.633851 0.183688
v 2.785620 1.313851 0.266674
v 2.785620 0.633851 0.266674
v 2.725925 1.313851 0.339411
v 2.725925 0.633851 0.339411
v 2.653188 1.313851 0.399105
v 2.653188 0.633851 0.399105
v 2.570202 1.313851 0.443462
v 2.570202 0.633851 0.443462
v 2.480157 1.313851 0.470777
v 2.480157 0.633851 0.470777
v 2.386514 1.313851 0.480000
v 2.386514 0.633851 0.480000
v 2.292871 1.313851 0.470777
v 2.292871 0.633851 0.470777
v 2.202826 1.313851 0.443462
v 2.202826 0.633851 0.443462
v 2.119840 1.313851 0.399105
v 2.119840 0.633851 0.399105
v 2.047103 1.313851 0.339411
v 2.047103 0.633851 0.339411
v 1.987409 1.313851 0.266673
v 1.987409 0.633851 0.266673
v 1.943052 1.313851 0.183688
v 1.943052 0.633851 0.183688
v 1.915737 1.313851 0.093643
v 1.915737 0.633851 0.093643
v 1.906514 1.313851 -0.000001
v 1.906514 0.633851 0.000000
v 1.915737 1.313851 -0.093644
v 1.915737 0.633851 -0.093644
v 1.943052 1.313851 -0.183689
v 1.943052 0.633851 -0.183688
v 1.987409 1.313851 -0.266674
v 1.987409 0.633851 -0.266674
v 2.047103 1.313851 -0.339412
v 2.047103 0.633851 -0.339412
v 2.119841 1.313851 -0.399106
v 2.119841 0.633851 -0.399106
v 2.202827 1.313851 -0.443462
v 2.202827 0.633851 -0.443462
v 2.292871 1.313851 -0.470777
v 2.292871 0.633851 -0.470777
v 2.900369 -0.960000 -0.500369
v 2.900369 -0.960000 0.500369
v -2.900370 -0.960000 0.500369
v -2.900368 -0.960000 -0.500369
v 3.180002 0.960000 -0.780000
v -3.180000 0.960000 -0.780000
v -3.180001 0.960000 0.780000
v 3.179998 0.960000 0.780001
v -2.389729 0.633851 -0.478485
v -2.389729 1.313851 -0.478485
v -2.296086 1.313851 -0.469262
v -2.296086 0.633851 -0.469262
v -2.206040 1.313851 -0.441947
v -2.206040 0.633851 -0.441947
v -2.123055 1.313851 -0.397590
v -2.123055 0.633851 -0.397590
v -2.050318 1.313851 -0.337896
v -2.050318 0.633851 -0.337896
v -1.990623 1.313851 -0.265159
v -1.990623 0.633851 -0.265158
v -1.946267 1.313851 -0.182173
v -1.946267 0.633851 -0.182173
v -1.918952 1.313851 -0.092128
v -1.918952 0.633851 -0.092128
v -1.909729 1.313851 0.001515
v -1.909729 0.633851 0.001515
v -1.918952 1.313851 0.095158
v -1.918952 0.633851 0.095159
v -1.946267 1.313851 0.185203
v -1.946267 0.633851 0.185203
v -1.990623 1.313851 0.268189
v -1.990623 0.633851 0.268189
v -2.050318 1.313851 0.340926
v -2.050318 0.633851 0.340927
v -2.123055 1.313851 0.400621
v -2.123055 0.633851 0.400621
v -2.206040 1.313851 0.444977
v -2.206040 0.633851 0.444978
v -2.296086 1.313851 0.472292
v -2.296086 0.633851 0.472292
v -2.389729 1.313851 0.481515
v -2.389729 0.633851 0.481515
v -2.483371 1.313851 0.472292
v -2.483371 0.633851 0.472292
v -2.573416 1.313851 0.444977
v -2.573416 0.633851 0.444977
v -2.656403 1.313851 0.400620
v -2.656403 0.633851 0.400621
v -2.729141 1.313851 0.340926
v -2.729141 0.633851 0.340926
v -2.788835 1.313851 0.268189
v -2.788835 0.633851 0.268189
v -2.833190 1.313851 0.185203
v -2.833190 0.633851 0.185203
v -2.860506 1.313851 0.095158
v -2.860506 0.633851 0.095158
v -2.869729 1.313851 0.001515
v -2.869729 0.633851 0.001515
v -2.860506 1.313851 -0.092129
v -2.860506 0.633851 -0.092129
v -2.833190 1.313851 -0.182173
v -2.833190 0.633851 -0.182173
v -2.788833 1.313851 -0.265159
v -2.788833 0.633851 -0.265159
v -2.729140 1.313851 -0.337896
v -2.729140 0.633851 -0.337896
v -2.656401 1.313851 -0.397591
v -2.656401 0.633851 -0.397590
v -2.573416 1.313851 -0.441947
v -2.573416 0.633851 -0.441947
v -2.483371 1.313851 -0.469262
v -2.483371 0.633851 -0.469262
v -0.802572 0.633851 -0.480000
v -0.802572 1.313851 -0.480000
v -0.708928 1.313851 -0.470777
v -0.708928 0.633851 -0.470777
v -0.618883 1.313851 -0.443462
v -0.618883 0.633851 -0.443462
v -0.535898 1.313851 -0.399105
v -0.535898 0.633851 -0.399105
v -0.463160 1.313851 -0.339411
v -0.463160 0.633851 -0.339411
v -0.403466 1.313851 -0.266674
v -0.403466 0.633851 -0.266674
v -0.359109 1.313851 -0.183688
v -0.359109 0.633851 -0.183688
v -0.331795 1.313851 -0.093643
v -0.331795 0.633851 -0.093643
v -0.322572 1.313851 0.000000
v -0.322572 0.633851 0.000000
v -0.331795 1.313851 0.093643
v -0.331795 0.633851 0.093643
v -0.359109 1.313851 0.183688
v -0.359109 0.633851 0.183688
v -0.403466 1.313851 0.266674
v -0.403466 0.633851 0.266674
v -0.463160 1.313851 0.339411
v -0.463160 0.633851 0.339411
v -0.535898 1.313851 0.399105
v -0.535898 0.633851 0.399105
v -0.618883 1.313851 0.443462
v -0.618883 0.633851 0.443462
v -0.708928 1.313851 0.470777
v -0.708928 0.633851 0.470777
v -0.802572 1.313851 0.480000
v -0.802572 0.633851 0.480000
v -0.896215 1.313851 0.470777
v -0.896215 0.633851 0.470777
v -0.986260 1.313851 0.443462
v -0.986260 0.633851 0.443462
v -1.069245 1.313851 0.399105
v -1.069245 0.633851 0.399105
v -1.141983 1.313851 0.339411
v -1.141983 0.633851 0.339411
v -1.201677 1.313851 0.266673
v -1.201677 0.633851 0.266673
v -1.246034 1.313851 0.183688
v -1.246034 0.633851 0.183688
v -1.273348 1.313851 0.093643
v -1.273348 0.633851 0.093643
v -1.282571 1.313851 -0.000001
v -1.282571 0.633851 0.000000
v -1.273348 1.313851 -0.093644
v -1.273348 0.633851 -0.093644
v -1.246033 1.313851 -0.183689
v -1.246033 0.633851 -0.183688
v -1.201677 1.313851 -0.266674
v -1.201677 0.633851 -0.266674
v -1.141982 1.313851 -0.339412
v -1.141982 0.633851 -0.339412
v -1.069245 1.313851 -0.399106
v -1.069245 0.633851 -0.399106
v -0.986259 1.313851 -0.443462
v -0.986259 0.633851 -0.443462
v -0.896214 1.313851 -0.470777
v -0.896214 0.633851 -0.470777
v 0.797553 0.633851 -0.480000
v 0.797553 1.313851 -0.480000
v 0.891197 1.313851 -0.470777
v 0.891197 0.633851 -0.470777
v 0.981241 1.313851 -0.443462
v 0.981241 0.633851 -0.443462
v 1.064227 1.313851 -0.399105
v 1.064227 0.633851 -0.399105
v 1.136965 1.313851 -0.339411
v 1.136965 0.633851 -0.339411
v 1.196659 1.313851 -0.266674
v 1.196659 0.633851 -0.266674
v 1.241016 1.313851 -0.183688
v 1.241016 0.633851 -0.183688
v 1.268330 1.313851 -0.093643
v 1.268330 0.633851 -0.093643
v 1.277553 1.313851 0.000000
v 1.277553 0.633851 0.000000
v 1.268330 1.313851 0.093643
v 1.268330 0.633851 0.093643
v 1.241016 1.313851 0.183688
v 1.241016 0.633851 0.183688
v 1.196659 1.313851 0.266674
v 1.196659 0.633851 0.266674
v 1.136965 1.313851 0.339411
v 1.136965 0.633851 0.339411
v 1.064227 1.313851 0.399105
v 1.064227 0.633851 0.399105
v 0.981241 1.313851 0.443462
v 0.981241 0.633851 0.443462
v 0.891197 1.313851 0.470777
v 0.891197 0.633851 0.470777
v 0.797553 1.313851 0.480000
v 0.797553 0.633851 0.480000
v 0.703910 1.313851 0.470777
v 0.703910 0.633851 0.470777
v 0.613865 1.313851 0.443462
v 0.613865 0.633851 0.443462
v 0.530879 1.313851 0.399105
v 0.530879 0.633851 0.399105
v 0.458142 1.313851 0.339411
v 0.458142 0.633851 0.339411
v 0.398448 1.313851 0.266673
v 0.398448 0.633851 0.266673
v 0.354091 1.313851 0.183688
v 0.354091 0.633851 0.183688
v 0.326776 1.313851 0.093643
v 0.326776 0.633851 0.093643
v 0.317553 1.313851 -0.000001
v 0.317553 0.633851 0.000000
v 0.326777 1.313851 -0.093644
v 0.326777 0.633851 -0.093644
v 0.354091 1.313851 -0.183689
v 0.354091 0.633851 -0.183688
v 0.398448 1.313851 -0.266674
v 0.398448 0.633851 -0.266674
v 0.458143 1.313851 -0.339412
v 0.458143 0.633851 -0.339412
v 0.530880 1.313851 -0.399106
v 0.530880 0.633851 -0.399106
v 0.613866 1.313851 -0.443462
v 0.613866 0.633851 -0.443462
v 0.703911 1.313851 -0.470777
v 0.703911 0.633851 -0.470777
v 3.180000 -0.960000 -0.780000
v -3.179999 -0.960000 -0.780000
v 3.180000 -0.960000 0.780000
v -3.180001 -0.960000 0.780000
v 2.900369 0.136025 -0.500369
v -2.900368 0.136025 -0.500369
v 2.900369 0.136025 0.500369
v -2.900370 0.136025 0.500369
vn 0.0980 0.0000 -0.9952
vn 0.2903 0.0000 -0.9569
vn 0.4714 0.0000 -0.8819
vn 0.6344 0.0000 -0.7730
vn 0.7730 0.0000 -0.6344
vn 0.8819 0.0000 -0.4714
vn 0.9569 0.0000 -0.2903
vn 0.9952 -0.0000 -0.0980
vn 0.9952 -0.0000 0.0980
vn 0.9569 -0.0000 0.2903
vn 0.8819 -0.0000 0.4714
vn 0.7730 -0.0000 0.6344
vn 0.6344 -0.0000 0.7730
vn 0.4714 -0.0000 0.8819
vn 0.2903 -0.0000 0.9569
vn 0.0980 -0.0000 0.9952
vn -0.0980 -0.0000 0.9952
vn -0.2903 -0.0000 0.9569
vn -0.4714 -0.0000 0.8819
vn -0.6344 -0.0000 0.7730
vn -0.7730 -0.0000 0.6344
vn -0.8819 -0.0000 0.4714
vn -0.9569 -0.0000 0.2903
vn -0.9952 0.0000 0.0980
vn -0.9952 0.0000 -0.0980
vn -0.9569 0.0000 -0.2903
vn -0.8819 -0.0000 -0.4714
vn -0.7730 0.0000 -0.6344
vn -0.6344 0.0000 -0.7730
vn -0.4714 0.0000 -0.8819
vn -0.0000 1.0000 0.0000
vn -0.2903 0.0000 -0.9569
vn -0.0980 0.0000 -0.9952
vn 0.0000 -1.0000 -0.0000
vn -0.7071 -0.0000 0.7071
vn -0.7071 0.0000 -0.7071
vn 1.0000 0.0000 0.0000
vn -0.0000 -0.0000 1.0000
vn -1.0000 -0.0000 -0.0000
vn 0.0000 0.0000 -1.0000
vn 0.7071 -0.0000 0.7071
vn 0.7071 0.0000 -0.7071
usemtl Material.005
s 1
f 1//1 2//1 3//1 4//1
f 4//2 3//2 5//2 6//2
f 6//3 5//3 7//3 8//3
f 8//4 7//4 9//4 10//4
f 10//5 9//5 11//5 12//5
f 12//6 11//6 13//6 14//6
f 14//7 13//7 15//7 16//7
f 16//8 15//8 17//8 18//8
f 18//9 17//9 19//9 20//9
f 20//10 19//10 21//10 22//10
f 22//11 21//11 23//11 24//11
f 24//12 23//12 25//12 26//12
f 26//13 25//13 27//13 28//13
f 28//14 27//14 29//14 30//14
f 30//15 29//15 31//15 32//15
f 32//16 31//16 33//16 34//16
f 34//17 33//17 35//17 36//17
f 36//18 35//18 37//18 38//18
f 38//19 37//19 39//19 40//19
f 40//20 39//20 41//20 42//20
f 42//21 41//21 43//21 44//21
f 44//22 43//22 45//22 46//22
f 46//23 45//23 47//23 48//23
f 48//24 47//24 49//24 50//24
f 50//25 49//25 51//25 52//25
f 52//26 51//26 53//26 54//26
f 54//27 53//27 55//27 56//27
f 56//28 55//28 57//28 58//28
f 58//29 57//29 59//29 60//29
f 60//30 59//30 61//30 62//30
f 3//31 2//31 63//31 61//31 59//31 57//31 55//31 53//31 51//31 49//31 47//31 45//31 43//31 41//31 39//31 37//31 35//31 33//31 31//31 29//31 27//31 25//31 23//31 21//31 19//31 17//31 15//31 13//31 11//31 9//31 7//31 5//31
f 62//32 61//32 63//32 64//32
f 64//33 63//33 2//33 1//33
f 1//34 4//34 6//34 8//34 10//34 12//34 14//34 16//34 18//34 20//34 22//34 24//34 26//34 28//34 30//34 32//34 34//34 36//34 38//34 40//34 42//34 44//34 46//34 48//34 50//34 52//34 54//34 56//34 58//34 60//34 62//34 64//34
f 65//35 66//36 271//36 269//35
f 69//31 70//31 71//31 72//31
f 265//37 69//37 72//37 267//37
f 267//38 72//38 71//38 268//38
f 268//39 71//39 70//39 266//39
f 69//40 265//40 266//40 70//40
f 73//1 74//1 75//1 76//1
f 76//2 75//2 77//2 78//2
f 78//3 77//3 79//3 80//3
f 80//4 79//4 81//4 82//4
f 82//5 81//5 83//5 84//5
f 84//6 83//6 85//6 86//6
f 86//7 85//7 87//7 88//7
f 88//8 87//8 89//8 90//8
f 90//9 89//9 91//9 92//9
f 92//10 91//10 93//10 94//10
f 94//11 93//11 95//11 96//11
f 96//12 95//12 97//12 98//12
f 98//13 97//13 99//13 100//13
f 100//14 99//14 101//14 102//14
f 102//15 101//15 103//15 104//15
f 104//16 103//16 105//16 106//16
f 106//17 105//17 107//17 108//17
f 108//18 107//18 109//18 110//18
f 110//19 109//19 111//19 112//19
f 112//20 111//20 113//20 114//20
f 114//21 113//21 115//21 116//21
f 116//22 115//22 117//22 118//22
f 118//23 117//23 119//23 120//23
f 120//24 119//24 121//24 122//24
f 122//25 121//25 123//25 124//25
f 124//26 123//26 125//26 126//26
f 126//27 125//27 127//27 128//27
f 128//28 127//28 129//28 130//28
f 130//29 129//29 131//29 132//29
f 132//30 131//30 133//30 134//30
f 75//31 74//31 135//31 133//31 131//31 129//31 127//31 125//31 123//31 121//31 119//31 117//31 115//31 113//31 111//31 109//31 107//31 105//31 103//31 101//31 99//31 97//31 95//31 93//31 91//31 89//31 87//31 85//31 83//31 81//31 79//31 77//31
f 134//32 133//32 135//32 136//32
f 136//33 135//33 74//33 73//33
f 73//34 76//34 78//34 80//34 82//34 84//34 86//34 88//34 90//34 92//34 94//34 96//34 98//34 100//34 102//34 104//34 106//34 108//34 110//34 112//34 114//34 116//34 118//34 120//34 122//34 124//34 126//34 128//34 130//34 132//34 134//34 136//34
f 137//1 138//1 139//1 140//1
f 140//2 139//2 141//2 142//2
f 142//3 141//3 143//3 144//3
f 144//4 143//4 145//4 146//4
f 146//5 145//5 147//5 148//5
f 148//6 147//6 149//6 150//6
f 150//7 149//7 151//7 152//7
f 152//8 151//8 153//8 154//8
f 154//9 153//9 155//9 156//9
f 156//10 155//10 157//10 158//10
f 158//11 157//11 159//11 160//11
f 160//12 159//12 161//12 162//12
f 162//13 161//13 163//13 164//13
f 164//14 163//14 165//14 166//14
f 166//15 165//15 167//15 168//15
f 168//16 167//16 169//16 170//16
f 170//17 169//17 171//17 172//17
f 172//18 171//18 173//18 174//18
f 174//19 173//19 175//19 176//19
f 176//20 175//20 177//20 178//20
f 178//21 177//21 179//21 180//21
f 180//22 179//22 181//22 182//22
f 182//23 181//23 183//23 184//23
f 184//24 183//24 185//24 186//24
f 186//25 185//25 187//25 188//25
f 188//26 187//26 189//26 190//26
f 190//27 189//27 191//27 192//27
f 192//28 191//28 193//28 194//28
f 194//29 193//29 195//29 196//29
f 196//30 195//30 197//30 198//30
f 139//31 138//31 199//31 197//31 195//31 193//31 191//31 189//31 187//31 185//31 183//31 181//31 179//31 177//31 175//31 173//31 171//31 169//31 167//31 165//31 163//31 161//31 159//31 157//31 155//31 153//31 151//31 149//31 147//31 145//31 143//31 141//31
f 198//32 197//32 199//32 200//32
f 200//33 199//33 138//33 137//33
f 137//34 140//34 142//34 144//34 146//34 148//34 150//34 152//34 154//34 156//34 158//34 160//34 162//34 164//34 166//34 168//34 170//34 172//34 174//34 176//34 178//34 180//34 182//34 184//34 186//34 188//34 190//34 192//34 194//34 196//34 198//34 200//34
f 201//1 202//1 203//1 204//1
f 204//2 203//2 205//2 206//2
f 206//3 205//3 207//3 208//3
f 208//4 207//4 209//4 210//4
f 210//5 209//5 211//5 212//5
f 212//6 211//6 213//6 214//6
f 214//7 213//7 215//7 216//7
f 216//8 215//8 217//8 218//8
f 218//9 217//9 219//9 220//9
f 220//10 219//10 221//10 222//10
f 222//11 221//11 223//11 224//11
f 224//12 223//12 225//12 226//12
f 226//13 225//13 227//13 228//13
f 228//14 227//14 229//14 230//14
f 230//15 229//15 231//15 232//15
f 232//16 231//16 233//16 234//16
f 234//17 233//17 235//17 236//17
f 236//18 235//18 237//18 238//18
f 238//19 237//19 239//19 240//19
f 240//20 239//20 241//20 242//20
f 242//21 241//21 243//21 244//21
f 244//22 243//22 245//22 246//22
f 246//23 245//23 247//23 248//23
f 248//24 247//24 249//24 250//24
f 250//25 249//25 251//25 252//25
f 252//26 251//26 253//26 254//26
f 254//27 253//27 255//27 256//27
f 256//28 255//28 257//28 258//28
f 258//29 257//29 259//29 260//29
f 260//30 259//30 261//30 262//30
f 203//31 202//31 263//31 261//31 259//31 257//31 255//31 253//31 251//31 249//31 247//31 245//31 243//31 241//31 239//31 237//31 235//31 233//31 231//31 229//31 227//31 225//31 223//31 221//31 219//31 217//31 215//31 213//31 211//31 209//31 207//31 205//31
f 262//32 261//32 263//32 264//32
f 264//33 263//33 202//33 201//33
f 201//34 204//34 206//34 208//34 210//34 212//34 214//34 216//34 218//34 220//34 222//34 224//34 226//34 228//34 230//34 232//34 234//34 236//34 238//34 240//34 242//34 244//34 246//34 248//34 250//34 252//34 254//34 256//34 258//34 260//34 262//34 264//34
f 65//34 68//34 266//34 265//34
f 67//34 66//34 267//34 268//34
f 66//34 65//34 265//34 267//34
f 68//34 67//34 268//34 266//34
f 269//34 271//34 272//34 270//34
f 68//41 65//35 269//35 270//41
f 67//42 68//41 270//41 272//42
f 66//36 67//42 272//42 271//36
