# Blender v2.79 (sub 0) OBJ File: ''
# www.blender.org
mtllib 1x6.mtl
o Cylinder.014_Cylinder.029
v 3.995117 0.633851 -0.480000
v 3.995117 1.313851 -0.480000
v 4.088760 1.313851 -0.470777
v 4.088760 0.633851 -0.470777
v 4.178805 1.313851 -0.443462
v 4.178805 0.633851 -0.443462
v 4.261790 1.313851 -0.399105
v 4.261790 0.633851 -0.399105
v 4.334528 1.313851 -0.339411
v 4.334528 0.633851 -0.339411
v 4.394222 1.313851 -0.266674
v 4.394222 0.633851 -0.266674
v 4.438579 1.313851 -0.183688
v 4.438579 0.633851 -0.183688
v 4.465894 1.313851 -0.093643
v 4.465894 0.633851 -0.093643
v 4.475117 1.313851 0.000000
v 4.475117 0.633851 0.000000
v 4.465894 1.313851 0.093643
v 4.465894 0.633851 0.093643
v 4.438579 1.313851 0.183688
v 4.438579 0.633851 0.183688
v 4.394222 1.313851 0.266674
v 4.394222 0.633851 0.266674
v 4.334528 1.313851 0.339411
v 4.334528 0.633851 0.339411
v 4.261790 1.313851 0.399105
v 4.261790 0.633851 0.399105
v 4.178805 1.313851 0.443462
v 4.178805 0.633851 0.443462
v 4.088760 1.313851 0.470777
v 4.088760 0.633851 0.470777
v 3.995116 1.313851 0.480000
v 3.995116 0.633851 0.480000
v 3.901473 1.313851 0.470777
v 3.901473 0.633851 0.470777
v 3.811429 1.313851 0.443462
v 3.811429 0.633851 0.443462
v 3.728443 1.313851 0.399105
v 3.728443 0.633851 0.399105
v 3.655705 1.313851 0.339411
v 3.655705 0.633851 0.339411
v 3.596011 1.313851 0.266673
v 3.596011 0.633851 0.266673
v 3.551654 1.313851 0.183688
v 3.551654 0.633851 0.183688
v 3.524340 1.313851 0.093643
v 3.524340 0.633851 0.093643
v 3.515117 1.313851 -0.000001
v 3.515117 0.633851 0.000000
v 3.524340 1.313851 -0.093644
v 3.524340 0.633851 -0.093644
v 3.551655 1.313851 -0.183689
v 3.551655 0.633851 -0.183688
v 3.596012 1.313851 -0.266674
v 3.596012 0.633851 -0.266674
v 3.655706 1.313851 -0.339412
v 3.655706 0.633851 -0.339412
v 3.728444 1.313851 -0.399106
v 3.728444 0.633851 -0.399106
v 3.811429 1.313851 -0.443462
v 3.811429 0.633851 -0.443462
v 3.901474 1.313851 -0.470777
v 3.901474 0.633851 -0.470777
v 4.500980 -0.960000 -0.500980
v 4.500980 -0.960000 0.500980
v -4.500980 -0.960000 0.500980
v -4.500978 -0.960000 -0.500980
v 4.780002 0.960000 -0.780000
v -4.779999 0.960000 -0.780000
v -4.780002 0.960000 0.780000
v 4.779996 0.960000 0.780001
v -4.000135 0.633851 -0.480000
v -4.000135 1.313851 -0.480000
v -3.906491 1.313851 -0.470777
v -3.906491 0.633851 -0.470777
v -3.816447 1.313851 -0.443462
v -3.816447 0.633851 -0.443462
v -3.733461 1.313851 -0.399105
v -3.733461 0.633851 -0.399105
v -3.660724 1.313851 -0.339411
v -3.660724 0.633851 -0.339411
v -3.601029 1.313851 -0.266674
v -3.601029 0.633851 -0.266674
v -3.556673 1.313851 -0.183688
v -3.556673 0.633851 -0.183688
v -3.529358 1.313851 -0.093643
v -3.529358 0.633851 -0.093643
v -3.520135 1.313851 0.000000
v -3.520135 0.633851 0.000000
v -3.529358 1.313851 0.093643
v -3.529358 0.633851 0.093643
v -3.556673 1.313851 0.183688
v -3.556673 0.633851 0.183688
v -3.601029 1.313851 0.266674
v -3.601029 0.633851 0.266674
v -3.660724 1.313851 0.339411
v -3.660724 0.633851 0.339411
v -3.733461 1.313851 0.399105
v -3.733461 0.633851 0.399105
v -3.816447 1.313851 0.443462
v -3.816447 0.633851 0.443462
v -3.906492 1.313851 0.470777
v -3.906492 0.633851 0.470777
v -4.000135 1.313851 0.480000
v -4.000135 0.633851 0.480000
v -4.093779 1.313851 0.470777
v -4.093779 0.633851 0.470777
v -4.183823 1.313851 0.443462
v -4.183823 0.633851 0.443462
v -4.266809 1.313851 0.399105
v -4.266809 0.633851 0.399105
v -4.339547 1.313851 0.339411
v -4.339547 0.633851 0.339411
v -4.399241 1.313851 0.266673
v -4.399241 0.633851 0.266673
v -4.443597 1.313851 0.183688
v -4.443597 0.633851 0.183688
v -4.470912 1.313851 0.093643
v -4.470912 0.633851 0.093643
v -4.480134 1.313851 -0.000001
v -4.480134 0.633851 0.000000
v -4.470912 1.313851 -0.093644
v -4.470912 0.633851 -0.093644
v -4.443597 1.313851 -0.183689
v -4.443597 0.633851 -0.183688
v -4.399240 1.313851 -0.266674
v -4.399240 0.633851 -0.266674
v -4.339546 1.313851 -0.339412
v -4.339546 0.633851 -0.339412
v -4.266808 1.313851 -0.399106
v -4.266808 0.633851 -0.399106
v -4.183822 1.313851 -0.443462
v -4.183822 0.633851 -0.443462
v -4.093778 1.313851 -0.470777
v -4.093778 0.633851 -0.470777
v -2.411174 0.633851 -0.481007
v -2.411174 1.313851 -0.481007
v -2.317531 1.313851 -0.471784
v -2.317531 0.633851 -0.471784
v -2.227486 1.313851 -0.444469
v -2.227486 0.633851 -0.444469
v -2.144500 1.313851 -0.400112
v -2.144500 0.633851 -0.400112
v -2.071763 1.313851 -0.340418
v -2.071763 0.633851 -0.340418
v -2.012069 1.313851 -0.267681
v -2.012069 0.633851 -0.267680
v -1.967712 1.313851 -0.184695
v -1.967712 0.633851 -0.184695
v -1.940397 1.313851 -0.094650
v -1.940397 0.633851 -0.094650
v -1.931174 1.313851 -0.001007
v -1.931174 0.633851 -0.001007
v -1.940397 1.313851 0.092636
v -1.940397 0.633851 0.092637
v -1.967712 1.313851 0.182681
v -1.967712 0.633851 0.182681
v -2.012069 1.313851 0.265667
v -2.012069 0.633851 0.265667
v -2.071763 1.313851 0.338404
v -2.071763 0.633851 0.338405
v -2.144500 1.313851 0.398099
v -2.144500 0.633851 0.398099
v -2.227486 1.313851 0.442455
v -2.227486 0.633851 0.442456
v -2.317531 1.313851 0.469770
v -2.317531 0.633851 0.469770
v -2.411174 1.313851 0.478993
v -2.411174 0.633851 0.478993
v -2.504817 1.313851 0.469770
v -2.504817 0.633851 0.469770
v -2.594862 1.313851 0.442455
v -2.594862 0.633851 0.442455
v -2.677848 1.313851 0.398098
v -2.677848 0.633851 0.398099
v -2.750586 1.313851 0.338404
v -2.750586 0.633851 0.338404
v -2.810279 1.313851 0.265667
v -2.810279 0.633851 0.265667
v -2.854636 1.313851 0.182681
v -2.854636 0.633851 0.182681
v -2.881951 1.313851 0.092636
v -2.881951 0.633851 0.092636
v -2.891174 1.313851 -0.001007
v -2.891174 0.633851 -0.001007
v -2.881951 1.313851 -0.094651
v -2.881951 0.633851 -0.094651
v -2.854636 1.313851 -0.184695
v -2.854636 0.633851 -0.184695
v -2.810279 1.313851 -0.267681
v -2.810279 0.633851 -0.267681
v -2.750585 1.313851 -0.340418
v -2.750585 0.633851 -0.340418
v -2.677847 1.313851 -0.400113
v -2.677847 0.633851 -0.400112
v -2.594862 1.313851 -0.444469
v -2.594862 0.633851 -0.444469
v -2.504817 1.313851 -0.471784
v -2.504817 0.633851 -0.471784
v -0.802571 0.633851 -0.480000
v -0.802571 1.313851 -0.480000
v -0.708928 1.313851 -0.470777
v -0.708928 0.633851 -0.470777
v -0.618883 1.313851 -0.443462
v -0.618883 0.633851 -0.443462
v -0.535898 1.313851 -0.399105
v -0.535898 0.633851 -0.399105
v -0.463161 1.313851 -0.339411
v -0.463161 0.633851 -0.339411
v -0.403466 1.313851 -0.266674
v -0.403466 0.633851 -0.266674
v -0.359109 1.313851 -0.183688
v -0.359109 0.633851 -0.183688
v -0.331795 1.313851 -0.093643
v -0.331795 0.633851 -0.093643
v -0.322571 1.313851 0.000000
v -0.322571 0.633851 0.000000
v -0.331795 1.313851 0.093643
v -0.331795 0.633851 0.093643
v -0.359109 1.313851 0.183688
v -0.359109 0.633851 0.183688
v -0.403466 1.313851 0.266674
v -0.403466 0.633851 0.266674
v -0.463161 1.313851 0.339411
v -0.463161 0.633851 0.339411
v -0.535898 1.313851 0.399105
v -0.535898 0.633851 0.399105
v -0.618884 1.313851 0.443462
v -0.618884 0.633851 0.443462
v -0.708928 1.313851 0.470777
v -0.708928 0.633851 0.470777
v -0.802571 1.313851 0.480000
v -0.802571 0.633851 0.480000
v -0.896215 1.313851 0.470777
v -0.896215 0.633851 0.470777
v -0.986259 1.313851 0.443462
v -0.986259 0.633851 0.443462
v -1.069245 1.313851 0.399105
v -1.069245 0.633851 0.399105
v -1.141983 1.313851 0.339411
v -1.141983 0.633851 0.339411
v -1.201677 1.313851 0.266673
v -1.201677 0.633851 0.266673
v -1.246034 1.313851 0.183688
v -1.246034 0.633851 0.183688
v -1.273348 1.313851 0.093643
v -1.273348 0.633851 0.093643
v -1.282571 1.313851 -0.000001
v -1.282571 0.633851 0.000000
v -1.273348 1.313851 -0.093644
v -1.273348 0.633851 -0.093644
v -1.246033 1.313851 -0.183689
v -1.246033 0.633851 -0.183688
v -1.201676 1.313851 -0.266674
v -1.201676 0.633851 -0.266674
v -1.141982 1.313851 -0.339412
v -1.141982 0.633851 -0.339412
v -1.069244 1.313851 -0.399106
v -1.069244 0.633851 -0.399106
v -0.986259 1.313851 -0.443462
v -0.986259 0.633851 -0.443462
v -0.896214 1.313851 -0.470777
v -0.896214 0.633851 -0.470777
v 2.386514 0.633851 -0.480000
v 2.386514 1.313851 -0.480000
v 2.480157 1.313851 -0.470777
v 2.480157 0.633851 -0.470777
v 2.570202 1.313851 -0.443462
v 2.570202 0.633851 -0.443462
v 2.653188 1.313851 -0.399105
v 2.653188 0.633851 -0.399105
v 2.725925 1.313851 -0.339411
v 2.725925 0.633851 -0.339411
v 2.785619 1.313851 -0.266674
v 2.785619 0.633851 -0.266674
v 2.829976 1.313851 -0.183688
v 2.829976 0.633851 -0.183688
v 2.857291 1.313851 -0.093643
v 2.857291 0.633851 -0.093643
v 2.866514 1.313851 0.000000
v 2.866514 0.633851 0.000000
v 2.857291 1.313851 0.093643
v 2.857291 0.633851 0.093643
v 2.829976 1.313851 0.183688
v 2.829976 0.633851 0.183688
v 2.785619 1.313851 0.266674
v 2.785619 0.633851 0.266674
v 2.725925 1.313851 0.339411
v 2.725925 0.633851 0.339411
v 2.653188 1.313851 0.399105
v 2.653188 0.633851 0.399105
v 2.570202 1.313851 0.443462
v 2.570202 0.633851 0.443462
v 2.480157 1.313851 0.470777
v 2.480157 0.633851 0.470777
v 2.386514 1.313851 0.480000
v 2.386514 0.633851 0.480000
v 2.292871 1.313851 0.470777
v 2.292871 0.633851 0.470777
v 2.202826 1.313851 0.443462
v 2.202826 0.633851 0.443462
v 2.119840 1.313851 0.399105
v 2.119840 0.633851 0.399105
v 2.047102 1.313851 0.339411
v 2.047102 0.633851 0.339411
v 1.987408 1.313851 0.266673
v 1.987408 0.633851 0.266673
v 1.943052 1.313851 0.183688
v 1.943052 0.633851 0.183688
v 1.915737 1.313851 0.093643
v 1.915737 0.633851 0.093643
v 1.906514 1.313851 -0.000001
v 1.906514 0.633851 0.000000
v 1.915737 1.313851 -0.093644
v 1.915737 0.633851 -0.093644
v 1.943052 1.313851 -0.183689
v 1.943052 0.633851 -0.183688
v 1.987409 1.313851 -0.266674
v 1.987409 0.633851 -0.266674
v 2.047103 1.313851 -0.339412
v 2.047103 0.633851 -0.339412
v 2.119841 1.313851 -0.399106
v 2.119841 0.633851 -0.399106
v 2.202826 1.313851 -0.443462
v 2.202826 0.633851 -0.443462
v 2.292871 1.313851 -0.470777
v 2.292871 0.633851 -0.470777
v 0.797553 0.633851 -0.480000
v 0.797553 1.313851 -0.480000
v 0.891197 1.313851 -0.470777
v 0.891197 0.633851 -0.470777
v 0.981241 1.313851 -0.443462
v 0.981241 0.633851 -0.443462
v 1.064227 1.313851 -0.399105
v 1.064227 0.633851 -0.399105
v 1.136965 1.313851 -0.339411
v 1.136965 0.633851 -0.339411
v 1.196659 1.313851 -0.266674
v 1.196659 0.633851 -0.266674
v 1.241015 1.313851 -0.183688
v 1.241015 0.633851 -0.183688
v 1.268330 1.313851 -0.093643
v 1.268330 0.633851 -0.093643
v 1.277553 1.313851 0.000000
v 1.277553 0.633851 0.000000
v 1.268330 1.313851 0.093643
v 1.268330 0.633851 0.093643
v 1.241015 1.313851 0.183688
v 1.241015 0.633851 0.183688
v 1.196659 1.313851 0.266674
v 1.196659 0.633851 0.266674
v 1.136965 1.313851 0.339411
v 1.136965 0.633851 0.339411
v 1.064227 1.313851 0.399105
v 1.064227 0.633851 0.399105
v 0.981241 1.313851 0.443462
v 0.981241 0.633851 0.443462
v 0.891197 1.313851 0.470777
v 0.891197 0.633851 0.470777
v 0.797553 1.313851 0.480000
v 0.797553 0.633851 0.480000
v 0.703910 1.313851 0.470777
v 0.703910 0.633851 0.470777
v 0.613865 1.313851 0.443462
v 0.613865 0.633851 0.443462
v 0.530879 1.313851 0.399105
v 0.530879 0.633851 0.399105
v 0.458142 1.313851 0.339411
v 0.458142 0.633851 0.339411
v 0.398448 1.313851 0.266673
v 0.398448 0.633851 0.266673
v 0.354091 1.313851 0.183688
v 0.354091 0.633851 0.183688
v 0.326776 1.313851 0.093643
v 0.326776 0.633851 0.093643
v 0.317553 1.313851 -0.000001
v 0.317553 0.633851 0.000000
v 0.326777 1.313851 -0.093644
v 0.326777 0.633851 -0.093644
v 0.354091 1.313851 -0.183689
v 0.354091 0.633851 -0.183688
v 0.398448 1.313851 -0.266674
v 0.398448 0.633851 -0.266674
v 0.458143 1.313851 -0.339412
v 0.458143 0.633851 -0.339412
v 0.530880 1.313851 -0.399106
v 0.530880 0.633851 -0.399106
v 0.613866 1.313851 -0.443462
v 0.613866 0.633851 -0.443462
v 0.703911 1.313851 -0.470777
v 0.703911 0.633851 -0.470777
v 4.780000 -0.960000 -0.780000
v -4.779998 -0.960000 -0.780000
v 4.780000 -0.960000 0.780000
v -4.780000 -0.960000 0.780000
v 4.500980 0.141793 -0.500980
v -4.500978 0.141793 -0.500980
v 4.500980 0.141793 0.500980
v -4.500980 0.141793 0.500980
vn 0.0980 0.0000 -0.9952
vn 0.2903 0.0000 -0.9569
vn 0.4714 0.0000 -0.8819
vn 0.6344 0.0000 -0.7730
vn 0.7730 0.0000 -0.6344
vn 0.8819 -0.0000 -0.4714
vn 0.9569 -0.0000 -0.2903
vn 0.9952 -0.0000 -0.0980
vn 0.9952 -0.0000 0.0980
vn 0.9569 -0.0000 0.2903
vn 0.8819 -0.0000 0.4714
vn 0.7730 -0.0000 0.6344
vn 0.6344 0.0000 0.7730
vn 0.4714 -0.0000 0.8819
vn 0.2903 -0.0000 0.9569
vn 0.0980 -0.0000 0.9952
vn -0.0980 -0.0000 0.9952
vn -0.2903 -0.0000 0.9569
vn -0.4714 -0.0000 0.8819
vn -0.6344 -0.0000 0.7730
vn -0.7730 -0.0000 0.6344
vn -0.8819 -0.0000 0.4714
vn -0.9569 0.0000 0.2903
vn -0.9952 -0.0000 0.0980
vn -0.9952 0.0000 -0.0980
vn -0.9569 -0.0000 -0.2903
vn -0.8819 0.0000 -0.4714
vn -0.7730 0.0000 -0.6344
vn -0.6344 0.0000 -0.7730
vn -0.4714 0.0000 -0.8819
vn -0.0000 1.0000 0.0000
vn -0.2903 0.0000 -0.9569
vn -0.0980 0.0000 -0.9952
vn 0.0000 -1.0000 -0.0000
vn -0.7071 -0.0000 0.7071
vn -0.7071 0.0000 -0.7071
vn 1.0000 0.0000 0.0000
vn -0.0000 -0.0000 1.0000
vn -1.0000 -0.0000 -0.0000
vn 0.0000 0.0000 -1.0000
vn 0.7071 -0.0000 0.7071
vn 0.7071 0.0000 -0.7071
usemtl Material.001
s 1
f 1//1 2//1 3//1 4//1
f 4//2 3//2 5//2 6//2
f 6//3 5//3 7//3 8//3
f 8//4 7//4 9//4 10//4
f 10//5 9//5 11//5 12//5
f 12//6 11//6 13//6 14//6
f 14//7 13//7 15//7 16//7
f 16//8 15//8 17//8 18//8
f 18//9 17//9 19//9 20//9
f 20//10 19//10 21//10 22//10
f 22//11 21//11 23//11 24//11
f 24//12 23//12 25//12 26//12
f 26//13 25//13 27//13 28//13
f 28//14 27//14 29//14 30//14
f 30//15 29//15 31//15 32//15
f 32//16 31//16 33//16 34//16
f 34//17 33//17 35//17 36//17
f 36//18 35//18 37//18 38//18
f 38//19 37//19 39//19 40//19
f 40//20 39//20 41//20 42//20
f 42//21 41//21 43//21 44//21
f 44//22 43//22 45//22 46//22
f 46//23 45//23 47//23 48//23
f 48//24 47//24 49//24 50//24
f 50//25 49//25 51//25 52//25
f 52//26 51//26 53//26 54//26
f 54//27 53//27 55//27 56//27
f 56//28 55//28 57//28 58//28
f 58//29 57//29 59//29 60//29
f 60//30 59//30 61//30 62//30
f 3//31 2//31 63//31 61//31 59//31 57//31 55//31 53//31 51//31 49//31 47//31 45//31 43//31 41//31 39//31 37//31 35//31 33//31 31//31 29//31 27//31 25//31 23//31 21//31 19//31 17//31 15//31 13//31 11//31 9//31 7//31 5//31
f 62//32 61//32 63//32 64//32
f 64//33 63//33 2//33 1//33
f 1//34 4//34 6//34 8//34 10//34 12//34 14//34 16//34 18//34 20//34 22//34 24//34 26//34 28//34 30//34 32//34 34//34 36//34 38//34 40//34 42//34 44//34 46//34 48//34 50//34 52//34 54//34 56//34 58//34 60//34 62//34 64//34
f 65//35 66//36 399//36 397//35
f 69//31 70//31 71//31 72//31
f 393//37 69//37 72//37 395//37
f 395//38 72//38 71//38 396//38
f 396//39 71//39 70//39 394//39
f 69//40 393//40 394//40 70//40
f 73//1 74//1 75//1 76//1
f 76//2 75//2 77//2 78//2
f 78//3 77//3 79//3 80//3
f 80//4 79//4 81//4 82//4
f 82//5 81//5 83//5 84//5
f 84//6 83//6 85//6 86//6
f 86//7 85//7 87//7 88//7
f 88//8 87//8 89//8 90//8
f 90//9 89//9 91//9 92//9
f 92//10 91//10 93//10 94//10
f 94//11 93//11 95//11 96//11
f 96//12 95//12 97//12 98//12
f 98//13 97//13 99//13 100//13
f 100//14 99//14 101//14 102//14
f 102//15 101//15 103//15 104//15
f 104//16 103//16 105//16 106//16
f 106//17 105//17 107//17 108//17
f 108//18 107//18 109//18 110//18
f 110//19 109//19 111//19 112//19
f 112//20 111//20 113//20 114//20
f 114//21 113//21 115//21 116//21
f 116//22 115//22 117//22 118//22
f 118//23 117//23 119//23 120//23
f 120//24 119//24 121//24 122//24
f 122//25 121//25 123//25 124//25
f 124//26 123//26 125//26 126//26
f 126//27 125//27 127//27 128//27
f 128//28 127//28 129//28 130//28
f 130//29 129//29 131//29 132//29
f 132//30 131//30 133//30 134//30
f 75//31 74//31 135//31 133//31 131//31 129//31 127//31 125//31 123//31 121//31 119//31 117//31 115//31 113//31 111//31 109//31 107//31 105//31 103//31 101//31 99//31 97//31 95//31 93//31 91//31 89//31 87//31 85//31 83//31 81//31 79//31 77//31
f 134//32 133//32 135//32 136//32
f 136//33 135//33 74//33 73//33
f 73//34 76//34 78//34 80//34 82//34 84//34 86//34 88//34 90//34 92//34 94//34 96//34 98//34 100//34 102//34 104//34 106//34 108//34 110//34 112//34 114//34 116//34 118//34 120//34 122//34 124//34 126//34 128//34 130//34 132//34 134//34 136//34
f 137//1 138//1 139//1 140//1
f 140//2 139//2 141//2 142//2
f 142//3 141//3 143//3 144//3
f 144//4 143//4 145//4 146//4
f 146//5 145//5 147//5 148//5
f 148//6 147//6 149//6 150//6
f 150//7 149//7 151//7 152//7
f 152//8 151//8 153//8 154//8
f 154//9 153//9 155//9 156//9
f 156//10 155//10 157//10 158//10
f 158//11 157//11 159//11 160//11
f 160//12 159//12 161//12 162//12
f 162//13 161//13 163//13 164//13
f 164//14 163//14 165//14 166//14
f 166//15 165//15 167//15 168//15
f 168//16 167//16 169//16 170//16
f 170//17 169//17 171//17 172//17
f 172//18 171//18 173//18 174//18
f 174//19 173//19 175//19 176//19
f 176//20 175//20 177//20 178//20
f 178//21 177//21 179//21 180//21
f 180//22 179//22 181//22 182//22
f 182//23 181//23 183//23 184//23
f 184//24 183//24 185//24 186//24
f 186//25 185//25 187//25 188//25
f 188//26 187//26 189//26 190//26
f 190//27 189//27 191//27 192//27
f 192//28 191//28 193//28 194//28
f 194//29 193//29 195//29 196//29
f 196//30 195//30 197//30 198//30
f 139//31 138//31 199//31 197//31 195//31 193//31 191//31 189//31 187//31 185//31 183//31 181//31 179//31 177//31 175//31 173//31 171//31 169//31 167//31 165//31 163//31 161//31 159//31 157//31 155//31 153//31 151//31 149//31 147//31 145//31 143//31 141//31
f 198//32 197//32 199//32 200//32
f 200//33 199//33 138//33 137//33
f 137//34 140//34 142//34 144//34 146//34 148//34 150//34 152//34 154//34 156//34 158//34 160//34 162//34 164//34 166//34 168//34 170//34 172//34 174//34 176//34 178//34 180//34 182//34 184//34 186//34 188//34 190//34 192//34 194//34 196//34 198//34 200//34
f 201//1 202//1 203//1 204//1
f 204//2 203//2 205//2 206//2
f 206//3 205//3 207//3 208//3
f 208//4 207//4 209//4 210//4
f 210//5 209//5 211//5 212//5
f 212//6 211//6 213//6 214//6
f 214//7 213//7 215//7 216//7
f 216//8 215//8 217//8 218//8
f 218//9 217//9 219//9 220//9
f 220//10 219//10 221//10 222//10
f 222//11 221//11 223//11 224//11
f 224//12 223//12 225//12 226//12
f 226//13 225//13 227//13 228//13
f 228//14 227//14 229//14 230//14
f 230//15 229//15 231//15 232//15
f 232//16 231//16 233//16 234//16
f 234//17 233//17 235//17 236//17
f 236//18 235//18 237//18 238//18
f 238//19 237//19 239//19 240//19
f 240//20 239//20 241//20 242//20
f 242//21 241//21 243//21 244//21
f 244//22 243//22 245//22 246//22
f 246//23 245//23 247//23 248//23
f 248//24 247//24 249//24 250//24
f 250//25 249//25 251//25 252//25
f 252//26 251//26 253//26 254//26
f 254//27 253//27 255//27 256//27
f 256//28 255//28 257//28 258//28
f 258//29 257//29 259//29 260//29
f 260//30 259//30 261//30 262//30
f 203//31 202//31 263//31 261//31 259//31 257//31 255//31 253//31 251//31 249//31 247//31 245//31 243//31 241//31 239//31 237//31 235//31 233//31 231//31 229//31 227//31 225//31 223//31 221//31 219//31 217//31 215//31 213//31 211//31 209//31 207//31 205//31
f 262//32 261//32 263//32 264//32
f 264//33 263//33 202//33 201//33
f 201//34 204//34 206//34 208//34 210//34 212//34 214//34 216//34 218//34 220//34 222//34 224//34 226//34 228//34 230//34 232//34 234//34 236//34 238//34 240//34 242//34 244//34 246//34 248//34 250//34 252//34 254//34 256//34 258//34 260//34 262//34 264//34
f 265//1 266//1 267//1 268//1
f 268//2 267//2 269//2 270//2
f 270//3 269//3 271//3 272//3
f 272//4 271//4 273//4 274//4
f 274//5 273//5 275//5 276//5
f 276//6 275//6 277//6 278//6
f 278//7 277//7 279//7 280//7
f 280//8 279//8 281//8 282//8
f 282//9 281//9 283//9 284//9
f 284//10 283//10 285//10 286//10
f 286//11 285//11 287//11 288//11
f 288//12 287//12 289//12 290//12
f 290//13 289//13 291//13 292//13
f 292//14 291//14 293//14 294//14
f 294//15 293//15 295//15 296//15
f 296//16 295//16 297//16 298//16
f 298//17 297//17 299//17 300//17
f 300//18 299//18 301//18 302//18
f 302//19 301//19 303//19 304//19
f 304//20 303//20 305//20 306//20
f 306//21 305//21 307//21 308//21
f 308//22 307//22 309//22 310//22
f 310//23 309//23 311//23 312//23
f 312//24 311//24 313//24 314//24
f 314//25 313//25 315//25 316//25
f 316//26 315//26 317//26 318//26
f 318//27 317//27 319//27 320//27
f 320//28 319//28 321//28 322//28
f 322//29 321//29 323//29 324//29
f 324//30 323//30 325//30 326//30
f 267//31 266//31 327//31 325//31 323//31 321//31 319//31 317//31 315//31 313//31 311//31 309//31 307//31 305//31 303//31 301//31 299//31 297//31 295//31 293//31 291//31 289//31 287//31 285//31 283//31 281//31 279//31 277//31 275//31 273//31 271//31 269//31
f 326//32 325//32 327//32 328//32
f 328//33 327//33 266//33 265//33
f 265//34 268//34 270//34 272//34 274//34 276//34 278//34 280//34 282//34 284//34 286//34 288//34 290//34 292//34 294//34 296//34 298//34 300//34 302//34 304//34 306//34 308//34 310//34 312//34 314//34 316//34 318//34 320//34 322//34 324//34 326//34 328//34
f 329//1 330//1 331//1 332//1
f 332//2 331//2 333//2 334//2
f 334//3 333//3 335//3 336//3
f 336//4 335//4 337//4 338//4
f 338//5 337//5 339//5 340//5
f 340//6 339//6 341//6 342//6
f 342//7 341//7 343//7 344//7
f 344//8 343//8 345//8 346//8
f 346//9 345//9 347//9 348//9
f 348//10 347//10 349//10 350//10
f 350//11 349//11 351//11 352//11
f 352//12 351//12 353//12 354//12
f 354//13 353//13 355//13 356//13
f 356//14 355//14 357//14 358//14
f 358//15 357//15 359//15 360//15
f 360//16 359//16 361//16 362//16
f 362//17 361//17 363//17 364//17
f 364//18 363//18 365//18 366//18
f 366//19 365//19 367//19 368//19
f 368//20 367//20 369//20 370//20
f 370//21 369//21 371//21 372//21
f 372//22 371//22 373//22 374//22
f 374//23 373//23 375//23 376//23
f 376//24 375//24 377//24 378//24
f 378//25 377//25 379//25 380//25
f 380//26 379//26 381//26 382//26
f 382//27 381//27 383//27 384//27
f 384//28 383//28 385//28 386//28
f 386//29 385//29 387//29 388//29
f 388//30 387//30 389//30 390//30
f 331//31 330//31 391//31 389//31 387//31 385//31 383//31 381//31 379//31 377//31 375//31 373//31 371//31 369//31 367//31 365//31 363//31 361//31 359//31 357//31 355//31 353//31 351//31 349//31 347//31 345//31 343//31 341//31 339//31 337//31 335//31 333//31
f 390//32 389//32 391//32 392//32
f 392//33 391//33 330//33 329//33
f 329//34 332//34 334//34 336//34 338//34 340//34 342//34 344//34 346//34 348//34 350//34 352//34 354//34 356//34 358//34 360//34 362//34 364//34 366//34 368//34 370//34 372//34 374//34 376//34 378//34 380//34 382//34 384//34 386//34 388//34 390//34 392//34
f 65//34 68//34 394//34 393//34
f 67//34 66//34 395//34 396//34
f 66//34 65//34 393//34 395//34
f 68//34 67//34 396//34 394//34
f 397//34 399//34 400//34 398//34
f 68//41 65//35 397//35 398//41
f 67//42 68//41 398//41 400//42
f 66//36 67//42 400//42 399//36
