# Blender v2.79 (sub 0) OBJ File: ''
# www.blender.org
mtllib 2x3.mtl
o Cube.000_Cube.003
v 2.098929 -0.960000 -1.298929
v 2.098929 -0.960000 1.298928
v -2.098928 -0.960000 1.298928
v -2.098927 -0.960000 -1.298929
v 2.380001 0.960000 -1.579999
v -2.380000 0.960000 -1.580000
v -2.380001 0.960000 1.579999
v 2.379998 0.960000 1.580001
v 1.591841 0.633851 0.319772
v 1.591841 1.313851 0.319772
v 1.685485 1.313851 0.328995
v 1.685485 0.633851 0.328995
v 1.775530 1.313851 0.356310
v 1.775530 0.633851 0.356310
v 1.858516 1.313851 0.400667
v 1.858516 0.633851 0.400667
v 1.931252 1.313851 0.460361
v 1.931252 0.633851 0.460361
v 1.990946 1.313851 0.533098
v 1.990946 0.633851 0.533098
v 2.035303 1.313851 0.616084
v 2.035303 0.633851 0.616084
v 2.062618 1.313851 0.706129
v 2.062618 0.633851 0.706129
v 2.071841 1.313851 0.799772
v 2.071841 0.633851 0.799772
v 2.062618 1.313851 0.893415
v 2.062618 0.633851 0.893415
v 2.035303 1.313851 0.983460
v 2.035303 0.633851 0.983460
v 1.990946 1.313851 1.066446
v 1.990946 0.633851 1.066446
v 1.931252 1.313851 1.139183
v 1.931252 0.633851 1.139183
v 1.858515 1.313851 1.198877
v 1.858515 0.633851 1.198877
v 1.775530 1.313851 1.243234
v 1.775530 0.633851 1.243234
v 1.685485 1.313851 1.270549
v 1.685485 0.633851 1.270549
v 1.591841 1.313851 1.279772
v 1.591841 0.633851 1.279772
v 1.498198 1.313851 1.270549
v 1.498198 0.633851 1.270549
v 1.408152 1.313851 1.243234
v 1.408152 0.633851 1.243234
v 1.325168 1.313851 1.198877
v 1.325168 0.633851 1.198877
v 1.252429 1.313851 1.139183
v 1.252429 0.633851 1.139183
v 1.192736 1.313851 1.066445
v 1.192736 0.633851 1.066445
v 1.148378 1.313851 0.983460
v 1.148378 0.633851 0.983460
v 1.121065 1.313851 0.893415
v 1.121065 0.633851 0.893415
v 1.111842 1.313851 0.799771
v 1.111842 0.633851 0.799772
v 1.121065 1.313851 0.706128
v 1.121065 0.633851 0.706128
v 1.148380 1.313851 0.616083
v 1.148380 0.633851 0.616084
v 1.192737 1.313851 0.533098
v 1.192737 0.633851 0.533098
v 1.252431 1.313851 0.460360
v 1.252431 0.633851 0.460360
v 1.325168 1.313851 0.400666
v 1.325168 0.633851 0.400666
v 1.408154 1.313851 0.356310
v 1.408154 0.633851 0.356310
v 1.498199 1.313851 0.328995
v 1.498199 0.633851 0.328995
v -1.595708 0.633851 0.319772
v -1.595708 1.313851 0.319772
v -1.502064 1.313851 0.328995
v -1.502064 0.633851 0.328995
v -1.412020 1.313851 0.356310
v -1.412020 0.633851 0.356310
v -1.329034 1.313851 0.400666
v -1.329034 0.633851 0.400666
v -1.256296 1.313851 0.460360
v -1.256296 0.633851 0.460361
v -1.196602 1.313851 0.533098
v -1.196602 0.633851 0.533098
v -1.152245 1.313851 0.616084
v -1.152245 0.633851 0.616084
v -1.124931 1.313851 0.706128
v -1.124931 0.633851 0.706128
v -1.115708 1.313851 0.799772
v -1.115708 0.633851 0.799772
v -1.124931 1.313851 0.893415
v -1.124931 0.633851 0.893415
v -1.152245 1.313851 0.983460
v -1.152245 0.633851 0.983460
v -1.196602 1.313851 1.066445
v -1.196602 0.633851 1.066445
v -1.256296 1.313851 1.139183
v -1.256296 0.633851 1.139183
v -1.329034 1.313851 1.198877
v -1.329034 0.633851 1.198877
v -1.412020 1.313851 1.243234
v -1.412020 0.633851 1.243234
v -1.502064 1.313851 1.270549
v -1.502064 0.633851 1.270549
v -1.595708 1.313851 1.279772
v -1.595708 0.633851 1.279772
v -1.689351 1.313851 1.270548
v -1.689351 0.633851 1.270549
v -1.779396 1.313851 1.243234
v -1.779396 0.633851 1.243234
v -1.862382 1.313851 1.198877
v -1.862382 0.633851 1.198877
v -1.935119 1.313851 1.139183
v -1.935119 0.633851 1.139183
v -1.994813 1.313851 1.066445
v -1.994813 0.633851 1.066445
v -2.039170 1.313851 0.983459
v -2.039170 0.633851 0.983459
v -2.066485 1.313851 0.893415
v -2.066485 0.633851 0.893415
v -2.075708 1.313851 0.799771
v -2.075708 0.633851 0.799771
v -2.066483 1.313851 0.706128
v -2.066483 0.633851 0.706128
v -2.039169 1.313851 0.616083
v -2.039169 0.633851 0.616083
v -1.994813 1.313851 0.533097
v -1.994813 0.633851 0.533098
v -1.935118 1.313851 0.460360
v -1.935118 0.633851 0.460360
v -1.862381 1.313851 0.400666
v -1.862381 0.633851 0.400666
v -1.779395 1.313851 0.356309
v -1.779395 0.633851 0.356309
v -1.689350 1.313851 0.328995
v -1.689350 0.633851 0.328995
v 0.008465 0.633851 0.319772
v 0.008465 1.313851 0.319772
v 0.102108 1.313851 0.328995
v 0.102108 0.633851 0.328995
v 0.192153 1.313851 0.356310
v 0.192153 0.633851 0.356310
v 0.275139 1.313851 0.400666
v 0.275139 0.633851 0.400666
v 0.347876 1.313851 0.460360
v 0.347876 0.633851 0.460361
v 0.407570 1.313851 0.533098
v 0.407570 0.633851 0.533098
v 0.451927 1.313851 0.616084
v 0.451927 0.633851 0.616084
v 0.479242 1.313851 0.706128
v 0.479242 0.633851 0.706128
v 0.488465 1.313851 0.799772
v 0.488465 0.633851 0.799772
v 0.479242 1.313851 0.893415
v 0.479242 0.633851 0.893415
v 0.451927 1.313851 0.983460
v 0.451927 0.633851 0.983460
v 0.407570 1.313851 1.066445
v 0.407570 0.633851 1.066445
v 0.347876 1.313851 1.139183
v 0.347876 0.633851 1.139183
v 0.275139 1.313851 1.198877
v 0.275139 0.633851 1.198877
v 0.192153 1.313851 1.243234
v 0.192153 0.633851 1.243234
v 0.102108 1.313851 1.270549
v 0.102108 0.633851 1.270549
v 0.008465 1.313851 1.279772
v 0.008465 0.633851 1.279772
v -0.085179 1.313851 1.270548
v -0.085179 0.633851 1.270549
v -0.175223 1.313851 1.243234
v -0.175223 0.633851 1.243234
v -0.258209 1.313851 1.198877
v -0.258209 0.633851 1.198877
v -0.330947 1.313851 1.139183
v -0.330947 0.633851 1.139183
v -0.390641 1.313851 1.066445
v -0.390641 0.633851 1.066445
v -0.434997 1.313851 0.983459
v -0.434997 0.633851 0.983459
v -0.462312 1.313851 0.893415
v -0.462312 0.633851 0.893415
v -0.471535 1.313851 0.799771
v -0.471535 0.633851 0.799771
v -0.462312 1.313851 0.706128
v -0.462312 0.633851 0.706128
v -0.434997 1.313851 0.616083
v -0.434997 0.633851 0.616083
v -0.390640 1.313851 0.533097
v -0.390640 0.633851 0.533098
v -0.330946 1.313851 0.460360
v -0.330946 0.633851 0.460360
v -0.258208 1.313851 0.400666
v -0.258208 0.633851 0.400666
v -0.175223 1.313851 0.356309
v -0.175223 0.633851 0.356309
v -0.085178 1.313851 0.328995
v -0.085178 0.633851 0.328995
v 1.591841 0.633851 -1.279772
v 1.591841 1.313851 -1.279772
v 1.685485 1.313851 -1.270549
v 1.685485 0.633851 -1.270549
v 1.775530 1.313851 -1.243234
v 1.775530 0.633851 -1.243234
v 1.858516 1.313851 -1.198877
v 1.858516 0.633851 -1.198877
v 1.931252 1.313851 -1.139183
v 1.931252 0.633851 -1.139183
v 1.990946 1.313851 -1.066446
v 1.990946 0.633851 -1.066446
v 2.035303 1.313851 -0.983460
v 2.035303 0.633851 -0.983460
v 2.062618 1.313851 -0.893415
v 2.062618 0.633851 -0.893415
v 2.071841 1.313851 -0.799772
v 2.071841 0.633851 -0.799772
v 2.062618 1.313851 -0.706129
v 2.062618 0.633851 -0.706129
v 2.035303 1.313851 -0.616084
v 2.035303 0.633851 -0.616084
v 1.990946 1.313851 -0.533098
v 1.990946 0.633851 -0.533098
v 1.931252 1.313851 -0.460361
v 1.931252 0.633851 -0.460361
v 1.858515 1.313851 -0.400667
v 1.858515 0.633851 -0.400667
v 1.775530 1.313851 -0.356310
v 1.775530 0.633851 -0.356310
v 1.685485 1.313851 -0.328995
v 1.685485 0.633851 -0.328995
v 1.591841 1.313851 -0.319772
v 1.591841 0.633851 -0.319772
v 1.498198 1.313851 -0.328995
v 1.498198 0.633851 -0.328995
v 1.408152 1.313851 -0.356310
v 1.408152 0.633851 -0.356310
v 1.325168 1.313851 -0.400667
v 1.325168 0.633851 -0.400667
v 1.252429 1.313851 -0.460361
v 1.252429 0.633851 -0.460361
v 1.192736 1.313851 -0.533099
v 1.192736 0.633851 -0.533099
v 1.148378 1.313851 -0.616084
v 1.148378 0.633851 -0.616084
v 1.121065 1.313851 -0.706129
v 1.121065 0.633851 -0.706129
v 1.111842 1.313851 -0.799773
v 1.111842 0.633851 -0.799772
v 1.121065 1.313851 -0.893416
v 1.121065 0.633851 -0.893416
v 1.148380 1.313851 -0.983461
v 1.148380 0.633851 -0.983460
v 1.192737 1.313851 -1.066446
v 1.192737 0.633851 -1.066446
v 1.252431 1.313851 -1.139184
v 1.252431 0.633851 -1.139184
v 1.325168 1.313851 -1.198878
v 1.325168 0.633851 -1.198878
v 1.408154 1.313851 -1.243235
v 1.408154 0.633851 -1.243234
v 1.498199 1.313851 -1.270549
v 1.498199 0.633851 -1.270549
v -0.006746 0.633851 -1.282204
v -0.006746 1.313851 -1.282204
v 0.086898 1.313851 -1.272981
v 0.086898 0.633851 -1.272981
v 0.176942 1.313851 -1.245666
v 0.176942 0.633851 -1.245666
v 0.259928 1.313851 -1.201309
v 0.259928 0.633851 -1.201309
v 0.332665 1.313851 -1.141615
v 0.332665 0.633851 -1.141615
v 0.392360 1.313851 -1.068878
v 0.392360 0.633851 -1.068878
v 0.436716 1.313851 -0.985892
v 0.436716 0.633851 -0.985892
v 0.464031 1.313851 -0.895847
v 0.464031 0.633851 -0.895847
v 0.473254 1.313851 -0.802204
v 0.473254 0.633851 -0.802204
v 0.464031 1.313851 -0.708561
v 0.464031 0.633851 -0.708561
v 0.436716 1.313851 -0.618516
v 0.436716 0.633851 -0.618516
v 0.392360 1.313851 -0.535530
v 0.392360 0.633851 -0.535530
v 0.332665 1.313851 -0.462793
v 0.332665 0.633851 -0.462793
v 0.259928 1.313851 -0.403099
v 0.259928 0.633851 -0.403098
v 0.176942 1.313851 -0.358742
v 0.176942 0.633851 -0.358742
v 0.086897 1.313851 -0.331427
v 0.086897 0.633851 -0.331427
v -0.006746 1.313851 -0.322204
v -0.006746 0.633851 -0.322204
v -0.100389 1.313851 -0.331427
v -0.100389 0.633851 -0.331427
v -0.190434 1.313851 -0.358742
v -0.190434 0.633851 -0.358742
v -0.273420 1.313851 -0.403099
v -0.273420 0.633851 -0.403099
v -0.346157 1.313851 -0.462793
v -0.346157 0.633851 -0.462793
v -0.405851 1.313851 -0.535531
v -0.405851 0.633851 -0.535531
v -0.450208 1.313851 -0.618516
v -0.450208 0.633851 -0.618516
v -0.477523 1.313851 -0.708561
v -0.477523 0.633851 -0.708561
v -0.486746 1.313851 -0.802204
v -0.486746 0.633851 -0.802204
v -0.477523 1.313851 -0.895848
v -0.477523 0.633851 -0.895848
v -0.450208 1.313851 -0.985893
v -0.450208 0.633851 -0.985892
v -0.405851 1.313851 -1.068878
v -0.405851 0.633851 -1.068878
v -0.346157 1.313851 -1.141616
v -0.346157 0.633851 -1.141616
v -0.273419 1.313851 -1.201310
v -0.273419 0.633851 -1.201310
v -0.190433 1.313851 -1.245666
v -0.190433 0.633851 -1.245666
v -0.100388 1.313851 -1.272981
v -0.100388 0.633851 -1.272981
v -1.595708 0.633851 -1.279772
v -1.595708 1.313851 -1.279772
v -1.502064 1.313851 -1.270549
v -1.502064 0.633851 -1.270549
v -1.412020 1.313851 -1.243234
v -1.412020 0.633851 -1.243234
v -1.329034 1.313851 -1.198877
v -1.329034 0.633851 -1.198877
v -1.256296 1.313851 -1.139183
v -1.256296 0.633851 -1.139183
v -1.196602 1.313851 -1.066446
v -1.196602 0.633851 -1.066446
v -1.152245 1.313851 -0.983460
v -1.152245 0.633851 -0.983460
v -1.124931 1.313851 -0.893415
v -1.124931 0.633851 -0.893415
v -1.115708 1.313851 -0.799772
v -1.115708 0.633851 -0.799772
v -1.124931 1.313851 -0.706129
v -1.124931 0.633851 -0.706129
v -1.152245 1.313851 -0.616084
v -1.152245 0.633851 -0.616084
v -1.196602 1.313851 -0.533098
v -1.196602 0.633851 -0.533098
v -1.256296 1.313851 -0.460361
v -1.256296 0.633851 -0.460361
v -1.329034 1.313851 -0.400667
v -1.329034 0.633851 -0.400667
v -1.412020 1.313851 -0.356310
v -1.412020 0.633851 -0.356310
v -1.502064 1.313851 -0.328995
v -1.502064 0.633851 -0.328995
v -1.595708 1.313851 -0.319772
v -1.595708 0.633851 -0.319772
v -1.689351 1.313851 -0.328995
v -1.689351 0.633851 -0.328995
v -1.779396 1.313851 -0.356310
v -1.779396 0.633851 -0.356310
v -1.862382 1.313851 -0.400667
v -1.862382 0.633851 -0.400667
v -1.935119 1.313851 -0.460361
v -1.935119 0.633851 -0.460361
v -1.994813 1.313851 -0.533099
v -1.994813 0.633851 -0.533099
v -2.039170 1.313851 -0.616084
v -2.039170 0.633851 -0.616084
v -2.066485 1.313851 -0.706129
v -2.066485 0.633851 -0.706129
v -2.075708 1.313851 -0.799773
v -2.075708 0.633851 -0.799772
v -2.066483 1.313851 -0.893416
v -2.066483 0.633851 -0.893416
v -2.039169 1.313851 -0.983461
v -2.039169 0.633851 -0.983460
v -1.994813 1.313851 -1.066446
v -1.994813 0.633851 -1.066446
v -1.935118 1.313851 -1.139184
v -1.935118 0.633851 -1.139184
v -1.862381 1.313851 -1.198878
v -1.862381 0.633851 -1.198878
v -1.779395 1.313851 -1.243235
v -1.779395 0.633851 -1.243234
v -1.689350 1.313851 -1.270549
v -1.689350 0.633851 -1.270549
v 2.380000 -0.960000 -1.580000
v 2.380000 -0.960000 1.580000
v -2.379999 -0.960000 -1.580000
v -2.380000 -0.960000 1.580000
v 2.098929 0.145640 -1.298928
v 2.098929 0.145640 1.298928
v -2.098927 0.145640 -1.298928
v -2.098928 0.145640 1.298928
vn 0.7071 0.0000 -0.7071
vn 0.7071 -0.0000 0.7071
vn -0.0000 1.0000 0.0000
vn 1.0000 0.0000 0.0000
vn -0.0000 -0.0000 1.0000
vn -1.0000 -0.0000 -0.0000
vn 0.0000 0.0000 -1.0000
vn 0.0980 0.0000 -0.9952
vn 0.2903 0.0000 -0.9569
vn 0.4714 0.0000 -0.8819
vn 0.6344 0.0000 -0.7730
vn 0.7730 0.0000 -0.6344
vn 0.8819 0.0000 -0.4714
vn 0.9569 0.0000 -0.2903
vn 0.9952 -0.0000 -0.0980
vn 0.9952 -0.0000 0.0980
vn 0.9569 -0.0000 0.2903
vn 0.8819 -0.0000 0.4714
vn 0.7730 -0.0000 0.6344
vn 0.6344 -0.0000 0.7730
vn 0.4714 -0.0000 0.8819
vn 0.2903 -0.0000 0.9569
vn 0.0980 -0.0000 0.9952
vn -0.0980 -0.0000 0.9952
vn -0.2903 -0.0000 0.9569
vn -0.4714 -0.0000 0.8819
vn -0.6344 -0.0000 0.7730
vn -0.7730 -0.0000 0.6344
vn -0.8819 -0.0000 0.4714
vn -0.9569 -0.0000 0.2903
vn -0.9952 0.0000 0.0980
vn -0.9952 -0.0000 -0.0980
vn -0.9569 -0.0000 -0.2903
vn -0.8819 -0.0000 -0.4714
vn -0.7730 0.0000 -0.6344
vn -0.6344 0.0000 -0.7730
vn -0.4714 0.0000 -0.8819
vn -0.2903 0.0000 -0.9569
vn -0.0980 0.0000 -0.9952
vn -0.0000 -1.0000 -0.0000
vn -0.7071 -0.0000 0.7071
vn -0.7071 0.0000 -0.7071
usemtl Material.004
s 1
f 3//1 4//2 399//2 400//1
f 5//3 6//3 7//3 8//3
f 393//4 5//4 8//4 394//4
f 394//5 8//5 7//5 396//5
f 396//6 7//6 6//6 395//6
f 5//7 393//7 395//7 6//7
f 9//8 10//8 11//8 12//8
f 12//9 11//9 13//9 14//9
f 14//10 13//10 15//10 16//10
f 16//11 15//11 17//11 18//11
f 18//12 17//12 19//12 20//12
f 20//13 19//13 21//13 22//13
f 22//14 21//14 23//14 24//14
f 24//15 23//15 25//15 26//15
f 26//16 25//16 27//16 28//16
f 28//17 27//17 29//17 30//17
f 30//18 29//18 31//18 32//18
f 32//19 31//19 33//19 34//19
f 34//20 33//20 35//20 36//20
f 36//21 35//21 37//21 38//21
f 38//22 37//22 39//22 40//22
f 40//23 39//23 41//23 42//23
f 42//24 41//24 43//24 44//24
f 44//25 43//25 45//25 46//25
f 46//26 45//26 47//26 48//26
f 48//27 47//27 49//27 50//27
f 50//28 49//28 51//28 52//28
f 52//29 51//29 53//29 54//29
f 54//30 53//30 55//30 56//30
f 56//31 55//31 57//31 58//31
f 58//32 57//32 59//32 60//32
f 60//33 59//33 61//33 62//33
f 62//34 61//34 63//34 64//34
f 64//35 63//35 65//35 66//35
f 66//36 65//36 67//36 68//36
f 68//37 67//37 69//37 70//37
f 11//3 10//3 71//3 69//3 67//3 65//3 63//3 61//3 59//3 57//3 55//3 53//3 51//3 49//3 47//3 45//3 43//3 41//3 39//3 37//3 35//3 33//3 31//3 29//3 27//3 25//3 23//3 21//3 19//3 17//3 15//3 13//3
f 70//38 69//38 71//38 72//38
f 72//39 71//39 10//39 9//39
f 9//40 12//40 14//40 16//40 18//40 20//40 22//40 24//40 26//40 28//40 30//40 32//40 34//40 36//40 38//40 40//40 42//40 44//40 46//40 48//40 50//40 52//40 54//40 56//40 58//40 60//40 62//40 64//40 66//40 68//40 70//40 72//40
f 73//8 74//8 75//8 76//8
f 76//9 75//9 77//9 78//9
f 78//10 77//10 79//10 80//10
f 80//11 79//11 81//11 82//11
f 82//12 81//12 83//12 84//12
f 84//13 83//13 85//13 86//13
f 86//14 85//14 87//14 88//14
f 88//15 87//15 89//15 90//15
f 90//16 89//16 91//16 92//16
f 92//17 91//17 93//17 94//17
f 94//18 93//18 95//18 96//18
f 96//19 95//19 97//19 98//19
f 98//20 97//20 99//20 100//20
f 100//21 99//21 101//21 102//21
f 102//22 101//22 103//22 104//22
f 104//23 103//23 105//23 106//23
f 106//24 105//24 107//24 108//24
f 108//25 107//25 109//25 110//25
f 110//26 109//26 111//26 112//26
f 112//27 111//27 113//27 114//27
f 114//28 113//28 115//28 116//28
f 116//29 115//29 117//29 118//29
f 118//30 117//30 119//30 120//30
f 120//31 119//31 121//31 122//31
f 122//32 121//32 123//32 124//32
f 124//33 123//33 125//33 126//33
f 126//34 125//34 127//34 128//34
f 128//35 127//35 129//35 130//35
f 130//36 129//36 131//36 132//36
f 132//37 131//37 133//37 134//37
f 75//3 74//3 135//3 133//3 131//3 129//3 127//3 125//3 123//3 121//3 119//3 117//3 115//3 113//3 111//3 109//3 107//3 105//3 103//3 101//3 99//3 97//3 95//3 93//3 91//3 89//3 87//3 85//3 83//3 81//3 79//3 77//3
f 134//38 133//38 135//38 136//38
f 136//39 135//39 74//39 73//39
f 73//40 76//40 78//40 80//40 82//40 84//40 86//40 88//40 90//40 92//40 94//40 96//40 98//40 100//40 102//40 104//40 106//40 108//40 110//40 112//40 114//40 116//40 118//40 120//40 122//40 124//40 126//40 128//40 130//40 132//40 134//40 136//40
f 137//8 138//8 139//8 140//8
f 140//9 139//9 141//9 142//9
f 142//10 141//10 143//10 144//10
f 144//11 143//11 145//11 146//11
f 146//12 145//12 147//12 148//12
f 148//13 147//13 149//13 150//13
f 150//14 149//14 151//14 152//14
f 152//15 151//15 153//15 154//15
f 154//16 153//16 155//16 156//16
f 156//17 155//17 157//17 158//17
f 158//18 157//18 159//18 160//18
f 160//19 159//19 161//19 162//19
f 162//20 161//20 163//20 164//20
f 164//21 163//21 165//21 166//21
f 166//22 165//22 167//22 168//22
f 168//23 167//23 169//23 170//23
f 170//24 169//24 171//24 172//24
f 172//25 171//25 173//25 174//25
f 174//26 173//26 175//26 176//26
f 176//27 175//27 177//27 178//27
f 178//28 177//28 179//28 180//28
f 180//29 179//29 181//29 182//29
f 182//30 181//30 183//30 184//30
f 184//31 183//31 185//31 186//31
f 186//32 185//32 187//32 188//32
f 188//33 187//33 189//33 190//33
f 190//34 189//34 191//34 192//34
f 192//35 191//35 193//35 194//35
f 194//36 193//36 195//36 196//36
f 196//37 195//37 197//37 198//37
f 139//3 138//3 199//3 197//3 195//3 193//3 191//3 189//3 187//3 185//3 183//3 181//3 179//3 177//3 175//3 173//3 171//3 169//3 167//3 165//3 163//3 161//3 159//3 157//3 155//3 153//3 151//3 149//3 147//3 145//3 143//3 141//3
f 198//38 197//38 199//38 200//38
f 200//39 199//39 138//39 137//39
f 137//40 140//40 142//40 144//40 146//40 148//40 150//40 152//40 154//40 156//40 158//40 160//40 162//40 164//40 166//40 168//40 170//40 172//40 174//40 176//40 178//40 180//40 182//40 184//40 186//40 188//40 190//40 192//40 194//40 196//40 198//40 200//40
f 201//8 202//8 203//8 204//8
f 204//9 203//9 205//9 206//9
f 206//10 205//10 207//10 208//10
f 208//11 207//11 209//11 210//11
f 210//12 209//12 211//12 212//12
f 212//13 211//13 213//13 214//13
f 214//14 213//14 215//14 216//14
f 216//15 215//15 217//15 218//15
f 218//16 217//16 219//16 220//16
f 220//17 219//17 221//17 222//17
f 222//18 221//18 223//18 224//18
f 224//19 223//19 225//19 226//19
f 226//20 225//20 227//20 228//20
f 228//21 227//21 229//21 230//21
f 230//22 229//22 231//22 232//22
f 232//23 231//23 233//23 234//23
f 234//24 233//24 235//24 236//24
f 236//25 235//25 237//25 238//25
f 238//26 237//26 239//26 240//26
f 240//27 239//27 241//27 242//27
f 242//28 241//28 243//28 244//28
f 244//29 243//29 245//29 246//29
f 246//30 245//30 247//30 248//30
f 248//31 247//31 249//31 250//31
f 250//32 249//32 251//32 252//32
f 252//33 251//33 253//33 254//33
f 254//34 253//34 255//34 256//34
f 256//35 255//35 257//35 258//35
f 258//36 257//36 259//36 260//36
f 260//37 259//37 261//37 262//37
f 203//3 202//3 263//3 261//3 259//3 257//3 255//3 253//3 251//3 249//3 247//3 245//3 243//3 241//3 239//3 237//3 235//3 233//3 231//3 229//3 227//3 225//3 223//3 221//3 219//3 217//3 215//3 213//3 211//3 209//3 207//3 205//3
f 262//38 261//38 263//38 264//38
f 264//39 263//39 202//39 201//39
f 201//40 204//40 206//40 208//40 210//40 212//40 214//40 216//40 218//40 220//40 222//40 224//40 226//40 228//40 230//40 232//40 234//40 236//40 238//40 240//40 242//40 244//40 246//40 248//40 250//40 252//40 254//40 256//40 258//40 260//40 262//40 264//40
f 265//8 266//8 267//8 268//8
f 268//9 267//9 269//9 270//9
f 270//10 269//10 271//10 272//10
f 272//11 271//11 273//11 274//11
f 274//12 273//12 275//12 276//12
f 276//13 275//13 277//13 278//13
f 278//14 277//14 279//14 280//14
f 280//15 279//15 281//15 282//15
f 282//16 281//16 283//16 284//16
f 284//17 283//17 285//17 286//17
f 286//18 285//18 287//18 288//18
f 288//19 287//19 289//19 290//19
f 290//20 289//20 291//20 292//20
f 292//21 291//21 293//21 294//21
f 294//22 293//22 295//22 296//22
f 296//23 295//23 297//23 298//23
f 298//24 297//24 299//24 300//24
f 300//25 299//25 301//25 302//25
f 302//26 301//26 303//26 304//26
f 304//27 303//27 305//27 306//27
f 306//28 305//28 307//28 308//28
f 308//29 307//29 309//29 310//29
f 310//30 309//30 311//30 312//30
f 312//31 311//31 313//31 314//31
f 314//32 313//32 315//32 316//32
f 316//33 315//33 317//33 318//33
f 318//34 317//34 319//34 320//34
f 320//35 319//35 321//35 322//35
f 322//36 321//36 323//36 324//36
f 324//37 323//37 325//37 326//37
f 267//3 266//3 327//3 325//3 323//3 321//3 319//3 317//3 315//3 313//3 311//3 309//3 307//3 305//3 303//3 301//3 299//3 297//3 295//3 293//3 291//3 289//3 287//3 285//3 283//3 281//3 279//3 277//3 275//3 273//3 271//3 269//3
f 326//38 325//38 327//38 328//38
f 328//39 327//39 266//39 265//39
f 265//40 268//40 270//40 272//40 274//40 276//40 278//40 280//40 282//40 284//40 286//40 288//40 290//40 292//40 294//40 296//40 298//40 300//40 302//40 304//40 306//40 308//40 310//40 312//40 314//40 316//40 318//40 320//40 322//40 324//40 326//40 328//40
f 329//8 330//8 331//8 332//8
f 332//9 331//9 333//9 334//9
f 334//10 333//10 335//10 336//10
f 336//11 335//11 337//11 338//11
f 338//12 337//12 339//12 340//12
f 340//13 339//13 341//13 342//13
f 342//14 341//14 343//14 344//14
f 344//15 343//15 345//15 346//15
f 346//16 345//16 347//16 348//16
f 348//17 347//17 349//17 350//17
f 350//18 349//18 351//18 352//18
f 352//19 351//19 353//19 354//19
f 354//20 353//20 355//20 356//20
f 356//21 355//21 357//21 358//21
f 358//22 357//22 359//22 360//22
f 360//23 359//23 361//23 362//23
f 362//24 361//24 363//24 364//24
f 364//25 363//25 365//25 366//25
f 366//26 365//26 367//26 368//26
f 368//27 367//27 369//27 370//27
f 370//28 369//28 371//28 372//28
f 372//29 371//29 373//29 374//29
f 374//30 373//30 375//30 376//30
f 376//31 375//31 377//31 378//31
f 378//32 377//32 379//32 380//32
f 380//33 379//33 381//33 382//33
f 382//34 381//34 383//34 384//34
f 384//35 383//35 385//35 386//35
f 386//36 385//36 387//36 388//36
f 388//37 387//37 389//37 390//37
f 331//3 330//3 391//3 389//3 387//3 385//3 383//3 381//3 379//3 377//3 375//3 373//3 371//3 369//3 367//3 365//3 363//3 361//3 359//3 357//3 355//3 353//3 351//3 349//3 347//3 345//3 343//3 341//3 339//3 337//3 335//3 333//3
f 390//38 389//38 391//38 392//38
f 392//39 391//39 330//39 329//39
f 329//40 332//40 334//40 336//40 338//40 340//40 342//40 344//40 346//40 348//40 350//40 352//40 354//40 356//40 358//40 360//40 362//40 364//40 366//40 368//40 370//40 372//40 374//40 376//40 378//40 380//40 382//40 384//40 386//40 388//40 390//40 392//40
f 2//40 1//40 393//40 394//40
f 1//40 4//40 395//40 393//40
f 3//40 2//40 394//40 396//40
f 4//40 3//40 396//40 395//40
f 397//40 398//40 400//40 399//40
f 4//2 1//41 397//41 399//2
f 2//42 3//1 400//1 398//42
f 1//41 2//42 398//42 397//41
