# Blender v2.79 (sub 0) OBJ File: ''
# www.blender.org
mtllib 2x2.mtl
o Cylinder.003_Cylinder.018
v 0.802679 0.633851 0.319772
v 0.802679 1.313851 0.319772
v 0.896322 0.633851 0.328995
v 0.896322 1.313851 0.328995
v 0.986367 0.633851 0.356310
v 0.986367 1.313851 0.356310
v 1.069352 0.633851 0.400667
v 1.069352 1.313851 0.400667
v 1.142090 0.633851 0.460361
v 1.142090 1.313851 0.460361
v 1.201784 0.633851 0.533098
v 1.201784 1.313851 0.533098
v 1.246141 0.633851 0.616084
v 1.246141 1.313851 0.616084
v 1.273456 0.633851 0.706129
v 1.273456 1.313851 0.706129
v 1.282679 0.633851 0.799772
v 1.282679 1.313851 0.799772
v 1.273456 0.633851 0.893415
v 1.273456 1.313851 0.893415
v 1.246141 0.633851 0.983460
v 1.246141 1.313851 0.983460
v 1.201784 0.633851 1.066446
v 1.201784 1.313851 1.066446
v 1.142090 0.633851 1.139183
v 1.142090 1.313851 1.139183
v 1.069352 0.633851 1.198877
v 1.069352 1.313851 1.198877
v 0.986367 0.633851 1.243234
v 0.986367 1.313851 1.243234
v 0.896322 0.633851 1.270549
v 0.896322 1.313851 1.270549
v 0.802678 0.633851 1.279772
v 0.802678 1.313851 1.279772
v 0.709035 0.633851 1.270549
v 0.709035 1.313851 1.270549
v 0.618990 0.633851 1.243234
v 0.618990 1.313851 1.243234
v 0.536005 0.633851 1.198877
v 0.536005 1.313851 1.198877
v 0.463267 0.633851 1.139183
v 0.463267 1.313851 1.139183
v 0.403573 0.633851 1.066445
v 0.403573 1.313851 1.066445
v 0.359216 0.633851 0.983460
v 0.359216 1.313851 0.983460
v 0.331902 0.633851 0.893415
v 0.331902 1.313851 0.893415
v 0.322679 0.633851 0.799772
v 0.322679 1.313851 0.799771
v 0.331902 0.633851 0.706128
v 0.331902 1.313851 0.706128
v 0.359217 0.633851 0.616084
v 0.359217 1.313851 0.616083
v 0.403574 0.633851 0.533098
v 0.403574 1.313851 0.533098
v 0.463268 0.633851 0.460360
v 0.463268 1.313851 0.460360
v 0.536005 0.633851 0.400666
v 0.536005 1.313851 0.400666
v 0.618991 0.633851 0.356310
v 0.618991 1.313851 0.356309
v 0.709036 0.633851 0.328995
v 0.709036 1.313851 0.328995
v -0.801493 0.633851 0.319772
v -0.801493 1.313851 0.319772
v -0.707850 0.633851 0.328995
v -0.707850 1.313851 0.328995
v -0.617805 0.633851 0.356310
v -0.617805 1.313851 0.356310
v -0.534819 0.633851 0.400667
v -0.534819 1.313851 0.400667
v -0.462082 0.633851 0.460361
v -0.462082 1.313851 0.460361
v -0.402387 0.633851 0.533098
v -0.402387 1.313851 0.533098
v -0.358031 0.633851 0.616084
v -0.358031 1.313851 0.616084
v -0.330716 0.633851 0.706129
v -0.330716 1.313851 0.706129
v -0.321493 0.633851 0.799772
v -0.321493 1.313851 0.799772
v -0.330716 0.633851 0.893415
v -0.330716 1.313851 0.893415
v -0.358031 0.633851 0.983460
v -0.358031 1.313851 0.983460
v -0.402387 0.633851 1.066446
v -0.402387 1.313851 1.066446
v -0.462082 0.633851 1.139183
v -0.462082 1.313851 1.139183
v -0.534819 0.633851 1.198877
v -0.534819 1.313851 1.198877
v -0.617805 0.633851 1.243234
v -0.617805 1.313851 1.243234
v -0.707850 0.633851 1.270549
v -0.707850 1.313851 1.270549
v -0.801493 0.633851 1.279772
v -0.801493 1.313851 1.279772
v -0.895136 0.633851 1.270549
v -0.895136 1.313851 1.270549
v -0.985181 0.633851 1.243234
v -0.985181 1.313851 1.243234
v -1.068167 0.633851 1.198877
v -1.068167 1.313851 1.198877
v -1.140904 0.633851 1.139183
v -1.140904 1.313851 1.139183
v -1.200598 0.633851 1.066445
v -1.200598 1.313851 1.066445
v -1.244955 0.633851 0.983460
v -1.244955 1.313851 0.983460
v -1.272270 0.633851 0.893415
v -1.272270 1.313851 0.893415
v -1.281493 0.633851 0.799772
v -1.281493 1.313851 0.799771
v -1.272269 0.633851 0.706128
v -1.272269 1.313851 0.706128
v -1.244955 0.633851 0.616084
v -1.244955 1.313851 0.616083
v -1.200598 0.633851 0.533098
v -1.200598 1.313851 0.533098
v -1.140903 0.633851 0.460360
v -1.140903 1.313851 0.460360
v -1.068166 0.633851 0.400666
v -1.068166 1.313851 0.400666
v -0.985180 0.633851 0.356310
v -0.985180 1.313851 0.356309
v -0.895136 0.633851 0.328995
v -0.895136 1.313851 0.328995
v 0.802679 0.633851 -1.279772
v 0.802679 1.313851 -1.279772
v 0.896322 0.633851 -1.270549
v 0.896322 1.313851 -1.270549
v 0.986367 0.633851 -1.243234
v 0.986367 1.313851 -1.243234
v 1.069352 0.633851 -1.198878
v 1.069352 1.313851 -1.198878
v 1.142090 0.633851 -1.139183
v 1.142090 1.313851 -1.139183
v 1.201784 0.633851 -1.066446
v 1.201784 1.313851 -1.066446
v 1.246141 0.633851 -0.983460
v 1.246141 1.313851 -0.983460
v 1.273455 0.633851 -0.893415
v 1.273455 1.313851 -0.893415
v 1.282678 0.633851 -0.799772
v 1.282678 1.313851 -0.799772
v 1.273455 0.633851 -0.706129
v 1.273455 1.313851 -0.706129
v 1.246141 0.633851 -0.616084
v 1.246141 1.313851 -0.616084
v 1.201784 0.633851 -0.533098
v 1.201784 1.313851 -0.533098
v 1.142090 0.633851 -0.460361
v 1.142090 1.313851 -0.460361
v 1.069352 0.633851 -0.400667
v 1.069352 1.313851 -0.400667
v 0.986367 0.633851 -0.356310
v 0.986367 1.313851 -0.356310
v 0.896322 0.633851 -0.328995
v 0.896322 1.313851 -0.328995
v 0.802678 0.633851 -0.319772
v 0.802678 1.313851 -0.319772
v 0.709035 0.633851 -0.328995
v 0.709035 1.313851 -0.328995
v 0.618990 0.633851 -0.356310
v 0.618990 1.313851 -0.356310
v 0.536005 0.633851 -0.400667
v 0.536005 1.313851 -0.400667
v 0.463267 0.633851 -0.460361
v 0.463267 1.313851 -0.460361
v 0.403573 0.633851 -0.533099
v 0.403573 1.313851 -0.533099
v 0.359216 0.633851 -0.616084
v 0.359216 1.313851 -0.616084
v 0.331902 0.633851 -0.706129
v 0.331902 1.313851 -0.706129
v 0.322679 0.633851 -0.799772
v 0.322679 1.313851 -0.799772
v 0.331902 0.633851 -0.893416
v 0.331902 1.313851 -0.893416
v 0.359217 0.633851 -0.983461
v 0.359217 1.313851 -0.983461
v 0.403573 0.633851 -1.066446
v 0.403573 1.313851 -1.066446
v 0.463268 0.633851 -1.139184
v 0.463268 1.313851 -1.139184
v 0.536005 0.633851 -1.198878
v 0.536005 1.313851 -1.198878
v 0.618991 0.633851 -1.243235
v 0.618991 1.313851 -1.243235
v 0.709036 0.633851 -1.270549
v 0.709036 1.313851 -1.270549
v -0.801493 0.633851 -1.279772
v -0.801493 1.313851 -1.279772
v -0.707850 0.633851 -1.270549
v -0.707850 1.313851 -1.270549
v -0.617805 0.633851 -1.243234
v -0.617805 1.313851 -1.243234
v -0.534819 0.633851 -1.198878
v -0.534819 1.313851 -1.198878
v -0.462082 0.633851 -1.139183
v -0.462082 1.313851 -1.139183
v -0.402387 0.633851 -1.066446
v -0.402387 1.313851 -1.066446
v -0.358031 0.633851 -0.983460
v -0.358031 1.313851 -0.983460
v -0.330716 0.633851 -0.893415
v -0.330716 1.313851 -0.893415
v -0.321493 0.633851 -0.799772
v -0.321493 1.313851 -0.799772
v -0.330716 0.633851 -0.706129
v -0.330716 1.313851 -0.706129
v -0.358031 0.633851 -0.616084
v -0.358031 1.313851 -0.616084
v -0.402387 0.633851 -0.533098
v -0.402387 1.313851 -0.533098
v -0.462082 0.633851 -0.460361
v -0.462082 1.313851 -0.460361
v -0.534819 0.633851 -0.400667
v -0.534819 1.313851 -0.400667
v -0.617805 0.633851 -0.356310
v -0.617805 1.313851 -0.356310
v -0.707850 0.633851 -0.328995
v -0.707850 1.313851 -0.328995
v -0.801493 0.633851 -0.319772
v -0.801493 1.313851 -0.319772
v -0.895136 0.633851 -0.328995
v -0.895136 1.313851 -0.328995
v -0.985181 0.633851 -0.356310
v -0.985181 1.313851 -0.356310
v -1.068167 0.633851 -0.400667
v -1.068167 1.313851 -0.400667
v -1.140904 0.633851 -0.460361
v -1.140904 1.313851 -0.460361
v -1.200598 0.633851 -0.533099
v -1.200598 1.313851 -0.533099
v -1.244955 0.633851 -0.616084
v -1.244955 1.313851 -0.616084
v -1.272270 0.633851 -0.706129
v -1.272270 1.313851 -0.706129
v -1.281493 0.633851 -0.799772
v -1.281493 1.313851 -0.799772
v -1.272269 0.633851 -0.893416
v -1.272269 1.313851 -0.893416
v -1.244955 0.633851 -0.983461
v -1.244955 1.313851 -0.983461
v -1.200598 0.633851 -1.066446
v -1.200598 1.313851 -1.066446
v -1.140903 0.633851 -1.139184
v -1.140903 1.313851 -1.139184
v -1.068166 0.633851 -1.198878
v -1.068166 1.313851 -1.198878
v -0.985180 0.633851 -1.243235
v -0.985180 1.313851 -1.243235
v -0.895136 0.633851 -1.270549
v -0.895136 1.313851 -1.270549
v 1.580000 -0.960000 -1.580000
v 1.580000 -0.960000 1.580000
v -1.580000 -0.960000 1.580000
v -1.579999 -0.960000 -1.580000
v 1.580001 0.959999 -1.579999
v 1.579999 0.960000 1.580001
v -1.580000 0.960000 1.579999
v -1.580000 0.959999 -1.580000
vn 0.0980 -0.0000 -0.9952
vn 0.2903 -0.0000 -0.9569
vn 0.4714 -0.0000 -0.8819
vn 0.6344 -0.0000 -0.7730
vn 0.7730 -0.0000 -0.6344
vn 0.8819 -0.0000 -0.4714
vn 0.9569 -0.0000 -0.2903
vn 0.9952 -0.0000 -0.0980
vn 0.9952 0.0000 0.0980
vn 0.9569 0.0000 0.2903
vn 0.8819 0.0000 0.4714
vn 0.7730 0.0000 0.6344
vn 0.6344 0.0000 0.7730
vn 0.4714 0.0000 0.8819
vn 0.2903 0.0000 0.9569
vn 0.0980 0.0000 0.9952
vn -0.0980 0.0000 0.9952
vn -0.2903 0.0000 0.9569
vn -0.4714 0.0000 0.8819
vn -0.6344 0.0000 0.7730
vn -0.7730 0.0000 0.6344
vn -0.8819 0.0000 0.4714
vn -0.9569 0.0000 0.2903
vn -0.9952 0.0000 0.0980
vn -0.9952 -0.0000 -0.0980
vn -0.9569 -0.0000 -0.2903
vn -0.8819 -0.0000 -0.4714
vn -0.7730 -0.0000 -0.6344
vn -0.6344 -0.0000 -0.7730
vn -0.4714 -0.0000 -0.8819
vn 0.0000 1.0000 -0.0000
vn -0.2903 -0.0000 -0.9569
vn -0.0980 -0.0000 -0.9952
vn -0.0000 -1.0000 0.0000
vn 1.0000 0.0000 0.0000
vn -0.0000 0.0000 1.0000
vn -1.0000 -0.0000 -0.0000
vn 0.0000 0.0000 -1.0000
usemtl Material.002
s 1
f 1//1 2//1 4//1 3//1
f 3//2 4//2 6//2 5//2
f 5//3 6//3 8//3 7//3
f 7//4 8//4 10//4 9//4
f 9//5 10//5 12//5 11//5
f 11//6 12//6 14//6 13//6
f 13//7 14//7 16//7 15//7
f 15//8 16//8 18//8 17//8
f 17//9 18//9 20//9 19//9
f 19//10 20//10 22//10 21//10
f 21//11 22//11 24//11 23//11
f 23//12 24//12 26//12 25//12
f 25//13 26//13 28//13 27//13
f 27//14 28//14 30//14 29//14
f 29//15 30//15 32//15 31//15
f 31//16 32//16 34//16 33//16
f 33//17 34//17 36//17 35//17
f 35//18 36//18 38//18 37//18
f 37//19 38//19 40//19 39//19
f 39//20 40//20 42//20 41//20
f 41//21 42//21 44//21 43//21
f 43//22 44//22 46//22 45//22
f 45//23 46//23 48//23 47//23
f 47//24 48//24 50//24 49//24
f 49//25 50//25 52//25 51//25
f 51//26 52//26 54//26 53//26
f 53//27 54//27 56//27 55//27
f 55//28 56//28 58//28 57//28
f 57//29 58//29 60//29 59//29
f 59//30 60//30 62//30 61//30
f 4//31 2//31 64//31 62//31 60//31 58//31 56//31 54//31 52//31 50//31 48//31 46//31 44//31 42//31 40//31 38//31 36//31 34//31 32//31 30//31 28//31 26//31 24//31 22//31 20//31 18//31 16//31 14//31 12//31 10//31 8//31 6//31
f 61//32 62//32 64//32 63//32
f 63//33 64//33 2//33 1//33
f 1//34 3//34 5//34 7//34 9//34 11//34 13//34 15//34 17//34 19//34 21//34 23//34 25//34 27//34 29//34 31//34 33//34 35//34 37//34 39//34 41//34 43//34 45//34 47//34 49//34 51//34 53//34 55//34 57//34 59//34 61//34 63//34
f 65//1 66//1 68//1 67//1
f 67//2 68//2 70//2 69//2
f 69//3 70//3 72//3 71//3
f 71//4 72//4 74//4 73//4
f 73//5 74//5 76//5 75//5
f 75//6 76//6 78//6 77//6
f 77//7 78//7 80//7 79//7
f 79//8 80//8 82//8 81//8
f 81//9 82//9 84//9 83//9
f 83//10 84//10 86//10 85//10
f 85//11 86//11 88//11 87//11
f 87//12 88//12 90//12 89//12
f 89//13 90//13 92//13 91//13
f 91//14 92//14 94//14 93//14
f 93//15 94//15 96//15 95//15
f 95//16 96//16 98//16 97//16
f 97//17 98//17 100//17 99//17
f 99//18 100//18 102//18 101//18
f 101//19 102//19 104//19 103//19
f 103//20 104//20 106//20 105//20
f 105//21 106//21 108//21 107//21
f 107//22 108//22 110//22 109//22
f 109//23 110//23 112//23 111//23
f 111//24 112//24 114//24 113//24
f 113//25 114//25 116//25 115//25
f 115//26 116//26 118//26 117//26
f 117//27 118//27 120//27 119//27
f 119//28 120//28 122//28 121//28
f 121//29 122//29 124//29 123//29
f 123//30 124//30 126//30 125//30
f 68//31 66//31 128//31 126//31 124//31 122//31 120//31 118//31 116//31 114//31 112//31 110//31 108//31 106//31 104//31 102//31 100//31 98//31 96//31 94//31 92//31 90//31 88//31 86//31 84//31 82//31 80//31 78//31 76//31 74//31 72//31 70//31
f 125//32 126//32 128//32 127//32
f 127//33 128//33 66//33 65//33
f 65//34 67//34 69//34 71//34 73//34 75//34 77//34 79//34 81//34 83//34 85//34 87//34 89//34 91//34 93//34 95//34 97//34 99//34 101//34 103//34 105//34 107//34 109//34 111//34 113//34 115//34 117//34 119//34 121//34 123//34 125//34 127//34
f 129//1 130//1 132//1 131//1
f 131//2 132//2 134//2 133//2
f 133//3 134//3 136//3 135//3
f 135//4 136//4 138//4 137//4
f 137//5 138//5 140//5 139//5
f 139//6 140//6 142//6 141//6
f 141//7 142//7 144//7 143//7
f 143//8 144//8 146//8 145//8
f 145//9 146//9 148//9 147//9
f 147//10 148//10 150//10 149//10
f 149//11 150//11 152//11 151//11
f 151//12 152//12 154//12 153//12
f 153//13 154//13 156//13 155//13
f 155//14 156//14 158//14 157//14
f 157//15 158//15 160//15 159//15
f 159//16 160//16 162//16 161//16
f 161//17 162//17 164//17 163//17
f 163//18 164//18 166//18 165//18
f 165//19 166//19 168//19 167//19
f 167//20 168//20 170//20 169//20
f 169//21 170//21 172//21 171//21
f 171//22 172//22 174//22 173//22
f 173//23 174//23 176//23 175//23
f 175//24 176//24 178//24 177//24
f 177//25 178//25 180//25 179//25
f 179//26 180//26 182//26 181//26
f 181//27 182//27 184//27 183//27
f 183//28 184//28 186//28 185//28
f 185//29 186//29 188//29 187//29
f 187//30 188//30 190//30 189//30
f 132//31 130//31 192//31 190//31 188//31 186//31 184//31 182//31 180//31 178//31 176//31 174//31 172//31 170//31 168//31 166//31 164//31 162//31 160//31 158//31 156//31 154//31 152//31 150//31 148//31 146//31 144//31 142//31 140//31 138//31 136//31 134//31
f 189//32 190//32 192//32 191//32
f 191//33 192//33 130//33 129//33
f 129//34 131//34 133//34 135//34 137//34 139//34 141//34 143//34 145//34 147//34 149//34 151//34 153//34 155//34 157//34 159//34 161//34 163//34 165//34 167//34 169//34 171//34 173//34 175//34 177//34 179//34 181//34 183//34 185//34 187//34 189//34 191//34
f 193//1 194//1 196//1 195//1
f 195//2 196//2 198//2 197//2
f 197//3 198//3 200//3 199//3
f 199//4 200//4 202//4 201//4
f 201//5 202//5 204//5 203//5
f 203//6 204//6 206//6 205//6
f 205//7 206//7 208//7 207//7
f 207//8 208//8 210//8 209//8
f 209//9 210//9 212//9 211//9
f 211//10 212//10 214//10 213//10
f 213//11 214//11 216//11 215//11
f 215//12 216//12 218//12 217//12
f 217//13 218//13 220//13 219//13
f 219//14 220//14 222//14 221//14
f 221//15 222//15 224//15 223//15
f 223//16 224//16 226//16 225//16
f 225//17 226//17 228//17 227//17
f 227//18 228//18 230//18 229//18
f 229//19 230//19 232//19 231//19
f 231//20 232//20 234//20 233//20
f 233//21 234//21 236//21 235//21
f 235//22 236//22 238//22 237//22
f 237//23 238//23 240//23 239//23
f 239//24 240//24 242//24 241//24
f 241//25 242//25 244//25 243//25
f 243//26 244//26 246//26 245//26
f 245//27 246//27 248//27 247//27
f 247//28 248//28 250//28 249//28
f 249//29 250//29 252//29 251//29
f 251//30 252//30 254//30 253//30
f 196//31 194//31 256//31 254//31 252//31 250//31 248//31 246//31 244//31 242//31 240//31 238//31 236//31 234//31 232//31 230//31 228//31 226//31 224//31 222//31 220//31 218//31 216//31 214//31 212//31 210//31 208//31 206//31 204//31 202//31 200//31 198//31
f 253//32 254//32 256//32 255//32
f 255//33 256//33 194//33 193//33
f 193//34 195//34 197//34 199//34 201//34 203//34 205//34 207//34 209//34 211//34 213//34 215//34 217//34 219//34 221//34 223//34 225//34 227//34 229//34 231//34 233//34 235//34 237//34 239//34 241//34 243//34 245//34 247//34 249//34 251//34 253//34 255//34
f 257//34 258//34 259//34 260//34
f 261//31 264//31 263//31 262//31
f 257//35 261//35 262//35 258//35
f 258//36 262//36 263//36 259//36
f 259//37 263//37 264//37 260//37
f 261//38 257//38 260//38 264//38
