# Blender v2.79 (sub 0) OBJ File: ''
# www.blender.org
mtllib 2x3.mtl
o Cube.000_Cube.003
v 2.380000 -0.960000 -1.580000
v 2.380000 -0.960000 1.580000
v -2.380000 -0.960000 1.580000
v -2.379999 -0.960000 -1.580000
v 2.380001 0.960000 -1.579999
v 2.379998 0.960000 1.580001
v -2.380001 0.960000 1.579999
v -2.380000 0.960000 -1.580000
v 1.620907 0.633851 0.319772
v 1.620907 1.313851 0.319772
v 1.714550 0.633851 0.328995
v 1.714550 1.313851 0.328995
v 1.804595 0.633851 0.356310
v 1.804595 1.313851 0.356310
v 1.887581 0.633851 0.400667
v 1.887581 1.313851 0.400667
v 1.960318 0.633851 0.460361
v 1.960318 1.313851 0.460361
v 2.020012 0.633851 0.533098
v 2.020012 1.313851 0.533098
v 2.064369 0.633851 0.616084
v 2.064369 1.313851 0.616084
v 2.091684 0.633851 0.706129
v 2.091684 1.313851 0.706129
v 2.100907 0.633851 0.799772
v 2.100907 1.313851 0.799772
v 2.091684 0.633851 0.893415
v 2.091684 1.313851 0.893415
v 2.064369 0.633851 0.983460
v 2.064369 1.313851 0.983460
v 2.020012 0.633851 1.066446
v 2.020012 1.313851 1.066446
v 1.960318 0.633851 1.139183
v 1.960318 1.313851 1.139183
v 1.887580 0.633851 1.198877
v 1.887580 1.313851 1.198877
v 1.804595 0.633851 1.243234
v 1.804595 1.313851 1.243234
v 1.714550 0.633851 1.270549
v 1.714550 1.313851 1.270549
v 1.620907 0.633851 1.279772
v 1.620907 1.313851 1.279772
v 1.527263 0.633851 1.270549
v 1.527263 1.313851 1.270549
v 1.437218 0.633851 1.243234
v 1.437218 1.313851 1.243234
v 1.354233 0.633851 1.198877
v 1.354233 1.313851 1.198877
v 1.281495 0.633851 1.139183
v 1.281495 1.313851 1.139183
v 1.221801 0.633851 1.066445
v 1.221801 1.313851 1.066445
v 1.177444 0.633851 0.983460
v 1.177444 1.313851 0.983460
v 1.150130 0.633851 0.893415
v 1.150130 1.313851 0.893415
v 1.140907 0.633851 0.799772
v 1.140907 1.313851 0.799771
v 1.150130 0.633851 0.706128
v 1.150130 1.313851 0.706128
v 1.177445 0.633851 0.616084
v 1.177445 1.313851 0.616083
v 1.221802 0.633851 0.533098
v 1.221802 1.313851 0.533098
v 1.281496 0.633851 0.460360
v 1.281496 1.313851 0.460360
v 1.354234 0.633851 0.400666
v 1.354234 1.313851 0.400666
v 1.437219 0.633851 0.356310
v 1.437219 1.313851 0.356310
v 1.527264 0.633851 0.328995
v 1.527264 1.313851 0.328995
v -1.576657 0.633851 0.319772
v -1.576657 1.313851 0.319772
v -1.483013 0.633851 0.328995
v -1.483013 1.313851 0.328995
v -1.392969 0.633851 0.356310
v -1.392969 1.313851 0.356310
v -1.309983 0.633851 0.400666
v -1.309983 1.313851 0.400666
v -1.237245 0.633851 0.460361
v -1.237245 1.313851 0.460360
v -1.177551 0.633851 0.533098
v -1.177551 1.313851 0.533098
v -1.133194 0.633851 0.616084
v -1.133194 1.313851 0.616084
v -1.105880 0.633851 0.706128
v -1.105880 1.313851 0.706128
v -1.096657 0.633851 0.799772
v -1.096657 1.313851 0.799772
v -1.105880 0.633851 0.893415
v -1.105880 1.313851 0.893415
v -1.133194 0.633851 0.983460
v -1.133194 1.313851 0.983460
v -1.177551 0.633851 1.066445
v -1.177551 1.313851 1.066445
v -1.237245 0.633851 1.139183
v -1.237245 1.313851 1.139183
v -1.309983 0.633851 1.198877
v -1.309983 1.313851 1.198877
v -1.392969 0.633851 1.243234
v -1.392969 1.313851 1.243234
v -1.483013 0.633851 1.270549
v -1.483013 1.313851 1.270549
v -1.576657 0.633851 1.279772
v -1.576657 1.313851 1.279772
v -1.670300 0.633851 1.270549
v -1.670300 1.313851 1.270548
v -1.760345 0.633851 1.243234
v -1.760345 1.313851 1.243234
v -1.843331 0.633851 1.198877
v -1.843331 1.313851 1.198877
v -1.916068 0.633851 1.139183
v -1.916068 1.313851 1.139183
v -1.975762 0.633851 1.066445
v -1.975762 1.313851 1.066445
v -2.020119 0.633851 0.983459
v -2.020119 1.313851 0.983459
v -2.047434 0.633851 0.893415
v -2.047434 1.313851 0.893415
v -2.056657 0.633851 0.799771
v -2.056657 1.313851 0.799771
v -2.047433 0.633851 0.706128
v -2.047433 1.313851 0.706128
v -2.020118 0.633851 0.616083
v -2.020118 1.313851 0.616083
v -1.975762 0.633851 0.533098
v -1.975762 1.313851 0.533097
v -1.916067 0.633851 0.460360
v -1.916067 1.313851 0.460360
v -1.843330 0.633851 0.400666
v -1.843330 1.313851 0.400666
v -1.760344 0.633851 0.356309
v -1.760344 1.313851 0.356309
v -1.670299 0.633851 0.328995
v -1.670299 1.313851 0.328995
v 0.027515 0.633851 0.319772
v 0.027515 1.313851 0.319772
v 0.121158 0.633851 0.328995
v 0.121158 1.313851 0.328995
v 0.211203 0.633851 0.356310
v 0.211203 1.313851 0.356310
v 0.294189 0.633851 0.400666
v 0.294189 1.313851 0.400666
v 0.366926 0.633851 0.460361
v 0.366926 1.313851 0.460360
v 0.426620 0.633851 0.533098
v 0.426620 1.313851 0.533098
v 0.470977 0.633851 0.616084
v 0.470977 1.313851 0.616084
v 0.498292 0.633851 0.706128
v 0.498292 1.313851 0.706128
v 0.507515 0.633851 0.799772
v 0.507515 1.313851 0.799772
v 0.498292 0.633851 0.893415
v 0.498292 1.313851 0.893415
v 0.470977 0.633851 0.983460
v 0.470977 1.313851 0.983460
v 0.426620 0.633851 1.066445
v 0.426620 1.313851 1.066445
v 0.366926 0.633851 1.139183
v 0.366926 1.313851 1.139183
v 0.294189 0.633851 1.198877
v 0.294189 1.313851 1.198877
v 0.211203 0.633851 1.243234
v 0.211203 1.313851 1.243234
v 0.121158 0.633851 1.270549
v 0.121158 1.313851 1.270549
v 0.027515 0.633851 1.279772
v 0.027515 1.313851 1.279772
v -0.066129 0.633851 1.270549
v -0.066129 1.313851 1.270548
v -0.156173 0.633851 1.243234
v -0.156173 1.313851 1.243234
v -0.239159 0.633851 1.198877
v -0.239159 1.313851 1.198877
v -0.311897 0.633851 1.139183
v -0.311897 1.313851 1.139183
v -0.371591 0.633851 1.066445
v -0.371591 1.313851 1.066445
v -0.415947 0.633851 0.983459
v -0.415947 1.313851 0.983459
v -0.443262 0.633851 0.893415
v -0.443262 1.313851 0.893415
v -0.452485 0.633851 0.799771
v -0.452485 1.313851 0.799771
v -0.443262 0.633851 0.706128
v -0.443262 1.313851 0.706128
v -0.415947 0.633851 0.616083
v -0.415947 1.313851 0.616083
v -0.371590 0.633851 0.533098
v -0.371590 1.313851 0.533097
v -0.311896 0.633851 0.460360
v -0.311896 1.313851 0.460360
v -0.239158 0.633851 0.400666
v -0.239158 1.313851 0.400666
v -0.156173 0.633851 0.356309
v -0.156173 1.313851 0.356309
v -0.066128 0.633851 0.328995
v -0.066128 1.313851 0.328995
v 1.620907 0.633851 -1.279772
v 1.620907 1.313851 -1.279772
v 1.714550 0.633851 -1.270549
v 1.714550 1.313851 -1.270549
v 1.804595 0.633851 -1.243234
v 1.804595 1.313851 -1.243234
v 1.887581 0.633851 -1.198877
v 1.887581 1.313851 -1.198877
v 1.960318 0.633851 -1.139183
v 1.960318 1.313851 -1.139183
v 2.020012 0.633851 -1.066446
v 2.020012 1.313851 -1.066446
v 2.064369 0.633851 -0.983460
v 2.064369 1.313851 -0.983460
v 2.091684 0.633851 -0.893415
v 2.091684 1.313851 -0.893415
v 2.100907 0.633851 -0.799772
v 2.100907 1.313851 -0.799772
v 2.091684 0.633851 -0.706129
v 2.091684 1.313851 -0.706129
v 2.064369 0.633851 -0.616084
v 2.064369 1.313851 -0.616084
v 2.020012 0.633851 -0.533098
v 2.020012 1.313851 -0.533098
v 1.960318 0.633851 -0.460361
v 1.960318 1.313851 -0.460361
v 1.887580 0.633851 -0.400667
v 1.887580 1.313851 -0.400667
v 1.804595 0.633851 -0.356310
v 1.804595 1.313851 -0.356310
v 1.714550 0.633851 -0.328995
v 1.714550 1.313851 -0.328995
v 1.620907 0.633851 -0.319772
v 1.620907 1.313851 -0.319772
v 1.527263 0.633851 -0.328995
v 1.527263 1.313851 -0.328995
v 1.437218 0.633851 -0.356310
v 1.437218 1.313851 -0.356310
v 1.354233 0.633851 -0.400667
v 1.354233 1.313851 -0.400667
v 1.281495 0.633851 -0.460361
v 1.281495 1.313851 -0.460361
v 1.221801 0.633851 -0.533099
v 1.221801 1.313851 -0.533099
v 1.177444 0.633851 -0.616084
v 1.177444 1.313851 -0.616084
v 1.150130 0.633851 -0.706129
v 1.150130 1.313851 -0.706129
v 1.140907 0.633851 -0.799772
v 1.140907 1.313851 -0.799773
v 1.150130 0.633851 -0.893416
v 1.150130 1.313851 -0.893416
v 1.177445 0.633851 -0.983460
v 1.177445 1.313851 -0.983461
v 1.221802 0.633851 -1.066446
v 1.221802 1.313851 -1.066446
v 1.281496 0.633851 -1.139184
v 1.281496 1.313851 -1.139184
v 1.354234 0.633851 -1.198878
v 1.354234 1.313851 -1.198878
v 1.437219 0.633851 -1.243234
v 1.437219 1.313851 -1.243235
v 1.527264 0.633851 -1.270549
v 1.527264 1.313851 -1.270549
v 0.012304 0.633851 -1.282204
v 0.012304 1.313851 -1.282204
v 0.105948 0.633851 -1.272981
v 0.105948 1.313851 -1.272981
v 0.195992 0.633851 -1.245666
v 0.195992 1.313851 -1.245666
v 0.278978 0.633851 -1.201309
v 0.278978 1.313851 -1.201309
v 0.351715 0.633851 -1.141615
v 0.351715 1.313851 -1.141615
v 0.411410 0.633851 -1.068878
v 0.411410 1.313851 -1.068878
v 0.455766 0.633851 -0.985892
v 0.455766 1.313851 -0.985892
v 0.483081 0.633851 -0.895847
v 0.483081 1.313851 -0.895847
v 0.492304 0.633851 -0.802204
v 0.492304 1.313851 -0.802204
v 0.483081 0.633851 -0.708561
v 0.483081 1.313851 -0.708561
v 0.455766 0.633851 -0.618516
v 0.455766 1.313851 -0.618516
v 0.411410 0.633851 -0.535530
v 0.411410 1.313851 -0.535530
v 0.351715 0.633851 -0.462793
v 0.351715 1.313851 -0.462793
v 0.278978 0.633851 -0.403098
v 0.278978 1.313851 -0.403099
v 0.195992 0.633851 -0.358742
v 0.195992 1.313851 -0.358742
v 0.105947 0.633851 -0.331427
v 0.105947 1.313851 -0.331427
v 0.012304 0.633851 -0.322204
v 0.012304 1.313851 -0.322204
v -0.081339 0.633851 -0.331427
v -0.081339 1.313851 -0.331427
v -0.171384 0.633851 -0.358742
v -0.171384 1.313851 -0.358742
v -0.254370 0.633851 -0.403099
v -0.254370 1.313851 -0.403099
v -0.327107 0.633851 -0.462793
v -0.327107 1.313851 -0.462793
v -0.386801 0.633851 -0.535531
v -0.386801 1.313851 -0.535531
v -0.431158 0.633851 -0.618516
v -0.431158 1.313851 -0.618516
v -0.458473 0.633851 -0.708561
v -0.458473 1.313851 -0.708561
v -0.467696 0.633851 -0.802204
v -0.467696 1.313851 -0.802204
v -0.458473 0.633851 -0.895848
v -0.458473 1.313851 -0.895848
v -0.431158 0.633851 -0.985892
v -0.431158 1.313851 -0.985893
v -0.386801 0.633851 -1.068878
v -0.386801 1.313851 -1.068878
v -0.327107 0.633851 -1.141616
v -0.327107 1.313851 -1.141616
v -0.254369 0.633851 -1.201310
v -0.254369 1.313851 -1.201310
v -0.171383 0.633851 -1.245666
v -0.171383 1.313851 -1.245666
v -0.081338 0.633851 -1.272981
v -0.081338 1.313851 -1.272981
v -1.576657 0.633851 -1.279772
v -1.576657 1.313851 -1.279772
v -1.483013 0.633851 -1.270549
v -1.483013 1.313851 -1.270549
v -1.392969 0.633851 -1.243234
v -1.392969 1.313851 -1.243234
v -1.309983 0.633851 -1.198877
v -1.309983 1.313851 -1.198877
v -1.237245 0.633851 -1.139183
v -1.237245 1.313851 -1.139183
v -1.177551 0.633851 -1.066446
v -1.177551 1.313851 -1.066446
v -1.133194 0.633851 -0.983460
v -1.133194 1.313851 -0.983460
v -1.105880 0.633851 -0.893415
v -1.105880 1.313851 -0.893415
v -1.096657 0.633851 -0.799772
v -1.096657 1.313851 -0.799772
v -1.105880 0.633851 -0.706129
v -1.105880 1.313851 -0.706129
v -1.133194 0.633851 -0.616084
v -1.133194 1.313851 -0.616084
v -1.177551 0.633851 -0.533098
v -1.177551 1.313851 -0.533098
v -1.237245 0.633851 -0.460361
v -1.237245 1.313851 -0.460361
v -1.309983 0.633851 -0.400667
v -1.309983 1.313851 -0.400667
v -1.392969 0.633851 -0.356310
v -1.392969 1.313851 -0.356310
v -1.483013 0.633851 -0.328995
v -1.483013 1.313851 -0.328995
v -1.576657 0.633851 -0.319772
v -1.576657 1.313851 -0.319772
v -1.670300 0.633851 -0.328995
v -1.670300 1.313851 -0.328995
v -1.760345 0.633851 -0.356310
v -1.760345 1.313851 -0.356310
v -1.843331 0.633851 -0.400667
v -1.843331 1.313851 -0.400667
v -1.916068 0.633851 -0.460361
v -1.916068 1.313851 -0.460361
v -1.975762 0.633851 -0.533099
v -1.975762 1.313851 -0.533099
v -2.020119 0.633851 -0.616084
v -2.020119 1.313851 -0.616084
v -2.047434 0.633851 -0.706129
v -2.047434 1.313851 -0.706129
v -2.056657 0.633851 -0.799772
v -2.056657 1.313851 -0.799773
v -2.047433 0.633851 -0.893416
v -2.047433 1.313851 -0.893416
v -2.020118 0.633851 -0.983460
v -2.020118 1.313851 -0.983461
v -1.975762 0.633851 -1.066446
v -1.975762 1.313851 -1.066446
v -1.916067 0.633851 -1.139184
v -1.916067 1.313851 -1.139184
v -1.843330 0.633851 -1.198878
v -1.843330 1.313851 -1.198878
v -1.760344 0.633851 -1.243234
v -1.760344 1.313851 -1.243235
v -1.670299 0.633851 -1.270549
v -1.670299 1.313851 -1.270549
vn -0.0000 -1.0000 0.0000
vn 0.0000 1.0000 -0.0000
vn 1.0000 0.0000 0.0000
vn -0.0000 -0.0000 1.0000
vn -1.0000 -0.0000 -0.0000
vn 0.0000 0.0000 -1.0000
vn 0.0980 -0.0000 -0.9952
vn 0.2903 -0.0000 -0.9569
vn 0.4714 -0.0000 -0.8819
vn 0.6344 -0.0000 -0.7730
vn 0.7730 -0.0000 -0.6344
vn 0.8819 -0.0000 -0.4714
vn 0.9569 0.0000 -0.2903
vn 0.9952 0.0000 -0.0980
vn 0.9952 0.0000 0.0980
vn 0.9569 0.0000 0.2903
vn 0.8819 0.0000 0.4714
vn 0.7730 0.0000 0.6344
vn 0.6344 0.0000 0.7730
vn 0.4714 0.0000 0.8819
vn 0.2903 0.0000 0.9569
vn 0.0980 0.0000 0.9952
vn -0.0980 0.0000 0.9952
vn -0.2903 0.0000 0.9569
vn -0.4714 0.0000 0.8819
vn -0.6344 0.0000 0.7730
vn -0.7730 0.0000 0.6344
vn -0.8819 0.0000 0.4714
vn -0.9569 0.0000 0.2903
vn -0.9952 -0.0000 0.0980
vn -0.9952 -0.0000 -0.0980
vn -0.9569 -0.0000 -0.2903
vn -0.8819 -0.0000 -0.4714
vn -0.7730 -0.0000 -0.6344
vn -0.6344 -0.0000 -0.7730
vn -0.4714 -0.0000 -0.8819
vn -0.2903 -0.0000 -0.9569
vn -0.0980 -0.0000 -0.9952
usemtl Material.002
s 1
f 1//1 2//1 3//1 4//1
f 5//2 8//2 7//2 6//2
f 1//3 5//3 6//3 2//3
f 2//4 6//4 7//4 3//4
f 3//5 7//5 8//5 4//5
f 5//6 1//6 4//6 8//6
f 9//7 10//7 12//7 11//7
f 11//8 12//8 14//8 13//8
f 13//9 14//9 16//9 15//9
f 15//10 16//10 18//10 17//10
f 17//11 18//11 20//11 19//11
f 19//12 20//12 22//12 21//12
f 21//13 22//13 24//13 23//13
f 23//14 24//14 26//14 25//14
f 25//15 26//15 28//15 27//15
f 27//16 28//16 30//16 29//16
f 29//17 30//17 32//17 31//17
f 31//18 32//18 34//18 33//18
f 33//19 34//19 36//19 35//19
f 35//20 36//20 38//20 37//20
f 37//21 38//21 40//21 39//21
f 39//22 40//22 42//22 41//22
f 41//23 42//23 44//23 43//23
f 43//24 44//24 46//24 45//24
f 45//25 46//25 48//25 47//25
f 47//26 48//26 50//26 49//26
f 49//27 50//27 52//27 51//27
f 51//28 52//28 54//28 53//28
f 53//29 54//29 56//29 55//29
f 55//30 56//30 58//30 57//30
f 57//31 58//31 60//31 59//31
f 59//32 60//32 62//32 61//32
f 61//33 62//33 64//33 63//33
f 63//34 64//34 66//34 65//34
f 65//35 66//35 68//35 67//35
f 67//36 68//36 70//36 69//36
f 12//2 10//2 72//2 70//2 68//2 66//2 64//2 62//2 60//2 58//2 56//2 54//2 52//2 50//2 48//2 46//2 44//2 42//2 40//2 38//2 36//2 34//2 32//2 30//2 28//2 26//2 24//2 22//2 20//2 18//2 16//2 14//2
f 69//37 70//37 72//37 71//37
f 71//38 72//38 10//38 9//38
f 9//1 11//1 13//1 15//1 17//1 19//1 21//1 23//1 25//1 27//1 29//1 31//1 33//1 35//1 37//1 39//1 41//1 43//1 45//1 47//1 49//1 51//1 53//1 55//1 57//1 59//1 61//1 63//1 65//1 67//1 69//1 71//1
f 73//7 74//7 76//7 75//7
f 75//8 76//8 78//8 77//8
f 77//9 78//9 80//9 79//9
f 79//10 80//10 82//10 81//10
f 81//11 82//11 84//11 83//11
f 83//12 84//12 86//12 85//12
f 85//13 86//13 88//13 87//13
f 87//14 88//14 90//14 89//14
f 89//15 90//15 92//15 91//15
f 91//16 92//16 94//16 93//16
f 93//17 94//17 96//17 95//17
f 95//18 96//18 98//18 97//18
f 97//19 98//19 100//19 99//19
f 99//20 100//20 102//20 101//20
f 101//21 102//21 104//21 103//21
f 103//22 104//22 106//22 105//22
f 105//23 106//23 108//23 107//23
f 107//24 108//24 110//24 109//24
f 109//25 110//25 112//25 111//25
f 111//26 112//26 114//26 113//26
f 113//27 114//27 116//27 115//27
f 115//28 116//28 118//28 117//28
f 117//29 118//29 120//29 119//29
f 119//30 120//30 122//30 121//30
f 121//31 122//31 124//31 123//31
f 123//32 124//32 126//32 125//32
f 125//33 126//33 128//33 127//33
f 127//34 128//34 130//34 129//34
f 129//35 130//35 132//35 131//35
f 131//36 132//36 134//36 133//36
f 76//2 74//2 136//2 134//2 132//2 130//2 128//2 126//2 124//2 122//2 120//2 118//2 116//2 114//2 112//2 110//2 108//2 106//2 104//2 102//2 100//2 98//2 96//2 94//2 92//2 90//2 88//2 86//2 84//2 82//2 80//2 78//2
f 133//37 134//37 136//37 135//37
f 135//38 136//38 74//38 73//38
f 73//1 75//1 77//1 79//1 81//1 83//1 85//1 87//1 89//1 91//1 93//1 95//1 97//1 99//1 101//1 103//1 105//1 107//1 109//1 111//1 113//1 115//1 117//1 119//1 121//1 123//1 125//1 127//1 129//1 131//1 133//1 135//1
f 137//7 138//7 140//7 139//7
f 139//8 140//8 142//8 141//8
f 141//9 142//9 144//9 143//9
f 143//10 144//10 146//10 145//10
f 145//11 146//11 148//11 147//11
f 147//12 148//12 150//12 149//12
f 149//13 150//13 152//13 151//13
f 151//14 152//14 154//14 153//14
f 153//15 154//15 156//15 155//15
f 155//16 156//16 158//16 157//16
f 157//17 158//17 160//17 159//17
f 159//18 160//18 162//18 161//18
f 161//19 162//19 164//19 163//19
f 163//20 164//20 166//20 165//20
f 165//21 166//21 168//21 167//21
f 167//22 168//22 170//22 169//22
f 169//23 170//23 172//23 171//23
f 171//24 172//24 174//24 173//24
f 173//25 174//25 176//25 175//25
f 175//26 176//26 178//26 177//26
f 177//27 178//27 180//27 179//27
f 179//28 180//28 182//28 181//28
f 181//29 182//29 184//29 183//29
f 183//30 184//30 186//30 185//30
f 185//31 186//31 188//31 187//31
f 187//32 188//32 190//32 189//32
f 189//33 190//33 192//33 191//33
f 191//34 192//34 194//34 193//34
f 193//35 194//35 196//35 195//35
f 195//36 196//36 198//36 197//36
f 140//2 138//2 200//2 198//2 196//2 194//2 192//2 190//2 188//2 186//2 184//2 182//2 180//2 178//2 176//2 174//2 172//2 170//2 168//2 166//2 164//2 162//2 160//2 158//2 156//2 154//2 152//2 150//2 148//2 146//2 144//2 142//2
f 197//37 198//37 200//37 199//37
f 199//38 200//38 138//38 137//38
f 137//1 139//1 141//1 143//1 145//1 147//1 149//1 151//1 153//1 155//1 157//1 159//1 161//1 163//1 165//1 167//1 169//1 171//1 173//1 175//1 177//1 179//1 181//1 183//1 185//1 187//1 189//1 191//1 193//1 195//1 197//1 199//1
f 201//7 202//7 204//7 203//7
f 203//8 204//8 206//8 205//8
f 205//9 206//9 208//9 207//9
f 207//10 208//10 210//10 209//10
f 209//11 210//11 212//11 211//11
f 211//12 212//12 214//12 213//12
f 213//13 214//13 216//13 215//13
f 215//14 216//14 218//14 217//14
f 217//15 218//15 220//15 219//15
f 219//16 220//16 222//16 221//16
f 221//17 222//17 224//17 223//17
f 223//18 224//18 226//18 225//18
f 225//19 226//19 228//19 227//19
f 227//20 228//20 230//20 229//20
f 229//21 230//21 232//21 231//21
f 231//22 232//22 234//22 233//22
f 233//23 234//23 236//23 235//23
f 235//24 236//24 238//24 237//24
f 237//25 238//25 240//25 239//25
f 239//26 240//26 242//26 241//26
f 241//27 242//27 244//27 243//27
f 243//28 244//28 246//28 245//28
f 245//29 246//29 248//29 247//29
f 247//30 248//30 250//30 249//30
f 249//31 250//31 252//31 251//31
f 251//32 252//32 254//32 253//32
f 253//33 254//33 256//33 255//33
f 255//34 256//34 258//34 257//34
f 257//35 258//35 260//35 259//35
f 259//36 260//36 262//36 261//36
f 204//2 202//2 264//2 262//2 260//2 258//2 256//2 254//2 252//2 250//2 248//2 246//2 244//2 242//2 240//2 238//2 236//2 234//2 232//2 230//2 228//2 226//2 224//2 222//2 220//2 218//2 216//2 214//2 212//2 210//2 208//2 206//2
f 261//37 262//37 264//37 263//37
f 263//38 264//38 202//38 201//38
f 201//1 203//1 205//1 207//1 209//1 211//1 213//1 215//1 217//1 219//1 221//1 223//1 225//1 227//1 229//1 231//1 233//1 235//1 237//1 239//1 241//1 243//1 245//1 247//1 249//1 251//1 253//1 255//1 257//1 259//1 261//1 263//1
f 265//7 266//7 268//7 267//7
f 267//8 268//8 270//8 269//8
f 269//9 270//9 272//9 271//9
f 271//10 272//10 274//10 273//10
f 273//11 274//11 276//11 275//11
f 275//12 276//12 278//12 277//12
f 277//13 278//13 280//13 279//13
f 279//14 280//14 282//14 281//14
f 281//15 282//15 284//15 283//15
f 283//16 284//16 286//16 285//16
f 285//17 286//17 288//17 287//17
f 287//18 288//18 290//18 289//18
f 289//19 290//19 292//19 291//19
f 291//20 292//20 294//20 293//20
f 293//21 294//21 296//21 295//21
f 295//22 296//22 298//22 297//22
f 297//23 298//23 300//23 299//23
f 299//24 300//24 302//24 301//24
f 301//25 302//25 304//25 303//25
f 303//26 304//26 306//26 305//26
f 305//27 306//27 308//27 307//27
f 307//28 308//28 310//28 309//28
f 309//29 310//29 312//29 311//29
f 311//30 312//30 314//30 313//30
f 313//31 314//31 316//31 315//31
f 315//32 316//32 318//32 317//32
f 317//33 318//33 320//33 319//33
f 319//34 320//34 322//34 321//34
f 321//35 322//35 324//35 323//35
f 323//36 324//36 326//36 325//36
f 268//2 266//2 328//2 326//2 324//2 322//2 320//2 318//2 316//2 314//2 312//2 310//2 308//2 306//2 304//2 302//2 300//2 298//2 296//2 294//2 292//2 290//2 288//2 286//2 284//2 282//2 280//2 278//2 276//2 274//2 272//2 270//2
f 325//37 326//37 328//37 327//37
f 327//38 328//38 266//38 265//38
f 265//1 267//1 269//1 271//1 273//1 275//1 277//1 279//1 281//1 283//1 285//1 287//1 289//1 291//1 293//1 295//1 297//1 299//1 301//1 303//1 305//1 307//1 309//1 311//1 313//1 315//1 317//1 319//1 321//1 323//1 325//1 327//1
f 329//7 330//7 332//7 331//7
f 331//8 332//8 334//8 333//8
f 333//9 334//9 336//9 335//9
f 335//10 336//10 338//10 337//10
f 337//11 338//11 340//11 339//11
f 339//12 340//12 342//12 341//12
f 341//13 342//13 344//13 343//13
f 343//14 344//14 346//14 345//14
f 345//15 346//15 348//15 347//15
f 347//16 348//16 350//16 349//16
f 349//17 350//17 352//17 351//17
f 351//18 352//18 354//18 353//18
f 353//19 354//19 356//19 355//19
f 355//20 356//20 358//20 357//20
f 357//21 358//21 360//21 359//21
f 359//22 360//22 362//22 361//22
f 361//23 362//23 364//23 363//23
f 363//24 364//24 366//24 365//24
f 365//25 366//25 368//25 367//25
f 367//26 368//26 370//26 369//26
f 369//27 370//27 372//27 371//27
f 371//28 372//28 374//28 373//28
f 373//29 374//29 376//29 375//29
f 375//30 376//30 378//30 377//30
f 377//31 378//31 380//31 379//31
f 379//32 380//32 382//32 381//32
f 381//33 382//33 384//33 383//33
f 383//34 384//34 386//34 385//34
f 385//35 386//35 388//35 387//35
f 387//36 388//36 390//36 389//36
f 332//2 330//2 392//2 390//2 388//2 386//2 384//2 382//2 380//2 378//2 376//2 374//2 372//2 370//2 368//2 366//2 364//2 362//2 360//2 358//2 356//2 354//2 352//2 350//2 348//2 346//2 344//2 342//2 340//2 338//2 336//2 334//2
f 389//37 390//37 392//37 391//37
f 391//38 392//38 330//38 329//38
f 329//1 331//1 333//1 335//1 337//1 339//1 341//1 343//1 345//1 347//1 349//1 351//1 353//1 355//1 357//1 359//1 361//1 363//1 365//1 367//1 369//1 371//1 373//1 375//1 377//1 379//1 381//1 383//1 385//1 387//1 389//1 391//1
